<svg xmlns="http://www.w3.org/2000/svg" viewBox="0 0 400 300"><g id="_228_city_buildings_flatline" data-name="#228_city_buildings_flatline"><rect x="286.65" y="66.56" width="63.83" height="150.86" fill="#fff"/><path d="M350.48,217.91H286.65a.5.5,0,0,1-.5-.5V66.56a.5.5,0,0,1,.5-.5h63.83a.5.5,0,0,1,.5.5V217.41A.5.5,0,0,1,350.48,217.91Zm-63.33-1H350V67.06H287.15Z" fill="#231f20"/><rect x="268.67" y="66.56" width="18.3" height="150.86" fill="#d1d3d4"/><path d="M287,217.91h-18.3a.5.5,0,0,1-.5-.5V66.56a.5.5,0,0,1,.5-.5H287a.5.5,0,0,1,.5.5V217.41A.5.5,0,0,1,287,217.91Zm-17.8-1h17.3V67.06h-17.3Z" fill="#231f20"/><path d="M350.48,74.84H268.67a.5.5,0,0,1,0-1h81.81a.5.5,0,0,1,0,1Z" fill="#231f20"/><path d="M350.48,81.51H268.67a.5.5,0,0,1-.5-.5.51.51,0,0,1,.5-.5h81.81a.51.51,0,0,1,.5.5A.5.5,0,0,1,350.48,81.51Z" fill="#231f20"/><path d="M350.48,88.18H268.67a.5.5,0,0,1-.5-.5.51.51,0,0,1,.5-.5h81.81a.51.51,0,0,1,.5.5A.5.5,0,0,1,350.48,88.18Z" fill="#231f20"/><path d="M350.48,94.86H268.67a.51.51,0,0,1-.5-.5.5.5,0,0,1,.5-.5h81.81a.5.5,0,0,1,.5.5A.51.51,0,0,1,350.48,94.86Z" fill="#231f20"/><path d="M350.48,101.53H268.67a.51.51,0,0,1-.5-.5.5.5,0,0,1,.5-.5h81.81a.5.5,0,0,1,.5.5A.51.51,0,0,1,350.48,101.53Z" fill="#231f20"/><path d="M350.48,108.2H268.67a.5.5,0,0,1,0-1h81.81a.5.5,0,0,1,0,1Z" fill="#231f20"/><path d="M350.48,114.87H268.67a.5.5,0,0,1-.5-.5.51.51,0,0,1,.5-.5h81.81a.51.51,0,0,1,.5.5A.5.5,0,0,1,350.48,114.87Z" fill="#231f20"/><path d="M350.48,121.54H268.67a.5.5,0,0,1-.5-.5.51.51,0,0,1,.5-.5h81.81a.51.51,0,0,1,.5.5A.5.5,0,0,1,350.48,121.54Z" fill="#231f20"/><path d="M350.48,128.21H268.67a.5.5,0,0,1-.5-.5.51.51,0,0,1,.5-.5h81.81a.51.51,0,0,1,.5.5A.5.5,0,0,1,350.48,128.21Z" fill="#231f20"/><path d="M350.48,134.89H268.67a.51.51,0,0,1-.5-.5.5.5,0,0,1,.5-.5h81.81a.5.5,0,0,1,.5.5A.51.51,0,0,1,350.48,134.89Z" fill="#231f20"/><path d="M350.48,141.56H268.67a.51.51,0,0,1-.5-.5.5.5,0,0,1,.5-.5h81.81a.5.5,0,0,1,.5.5A.51.51,0,0,1,350.48,141.56Z" fill="#231f20"/><path d="M350.48,148.23H268.67a.5.5,0,0,1,0-1h81.81a.5.5,0,0,1,0,1Z" fill="#231f20"/><path d="M350.48,154.9H268.67a.5.5,0,0,1-.5-.5.51.51,0,0,1,.5-.5h81.81a.51.51,0,0,1,.5.5A.5.5,0,0,1,350.48,154.9Z" fill="#231f20"/><path d="M350.48,161.57H268.67a.5.5,0,0,1-.5-.5.51.51,0,0,1,.5-.5h81.81a.51.51,0,0,1,.5.5A.5.5,0,0,1,350.48,161.57Z" fill="#231f20"/><path d="M350.48,168.25H268.67a.51.51,0,0,1-.5-.5.5.5,0,0,1,.5-.5h81.81a.5.5,0,0,1,.5.5A.51.51,0,0,1,350.48,168.25Z" fill="#231f20"/><path d="M350.48,174.92H268.67a.51.51,0,0,1-.5-.5.5.5,0,0,1,.5-.5h81.81a.5.5,0,0,1,.5.5A.51.51,0,0,1,350.48,174.92Z" fill="#231f20"/><path d="M350.48,181.59H268.67a.5.5,0,0,1,0-1h81.81a.5.5,0,0,1,0,1Z" fill="#231f20"/><path d="M350.48,188.26H268.67a.5.5,0,0,1-.5-.5.51.51,0,0,1,.5-.5h81.81a.51.51,0,0,1,.5.5A.5.5,0,0,1,350.48,188.26Z" fill="#231f20"/><path d="M350.48,194.93H268.67a.5.5,0,0,1-.5-.5.51.51,0,0,1,.5-.5h81.81a.51.51,0,0,1,.5.5A.5.5,0,0,1,350.48,194.93Z" fill="#231f20"/><rect x="265.66" y="61.49" width="21.31" height="5.07" fill="#231f20"/><path d="M287,67.06H265.66a.5.5,0,0,1-.5-.5V61.49a.5.5,0,0,1,.5-.5H287a.5.5,0,0,1,.5.5v5.07A.5.5,0,0,1,287,67.06Zm-20.81-1h20.31V62H266.16Z" fill="#231f20"/><rect x="286.97" y="61.49" width="67.21" height="5.07" fill="#231f20"/><path d="M354.18,67.06H287a.51.51,0,0,1-.5-.5V61.49a.5.5,0,0,1,.5-.5h67.21a.5.5,0,0,1,.5.5v5.07A.5.5,0,0,1,354.18,67.06Zm-66.71-1h66.21V62H287.47Z" fill="#231f20"/><rect x="296.83" y="197.39" width="43.46" height="17.17" fill="#231f20"/><path d="M340.29,215.06H296.83a.5.5,0,0,1-.5-.5V197.39a.5.5,0,0,1,.5-.5h43.46a.5.5,0,0,1,.5.5v17.17A.5.5,0,0,1,340.29,215.06Zm-43-1h42.46V197.89H297.33Z" fill="#231f20"/><polygon points="268.92 217.41 204.08 217.41 204.08 29.86 268.92 57.66 268.92 217.41" fill="#fff"/><path d="M268.92,217.91H204.08a.5.5,0,0,1-.5-.5V29.86a.48.48,0,0,1,.22-.41.51.51,0,0,1,.48-.05l64.84,27.8a.51.51,0,0,1,.3.46V217.41A.5.5,0,0,1,268.92,217.91Zm-64.34-1h63.84V58L204.58,30.62Z" fill="#231f20"/><polygon points="204.82 217.41 187.29 217.41 187.29 34.68 204.82 29.86 204.82 217.41" fill="#d1d3d4"/><path d="M204.82,217.91H187.29a.5.5,0,0,1-.5-.5V34.68a.5.5,0,0,1,.37-.48l17.52-4.82a.52.52,0,0,1,.44.08.54.54,0,0,1,.2.4V217.41A.5.5,0,0,1,204.82,217.91Zm-17-1h16.53V30.52l-16.53,4.54Z" fill="#231f20"/><path d="M221.48,191.66a.5.5,0,0,1-.5-.5V37.32a.5.5,0,0,1,.5-.5.5.5,0,0,1,.5.5V191.16A.5.5,0,0,1,221.48,191.66Z" fill="#231f20"/><path d="M238.72,191.66a.5.5,0,0,1-.5-.5V44.71a.5.5,0,0,1,.5-.5.51.51,0,0,1,.5.5V191.16A.5.5,0,0,1,238.72,191.66Z" fill="#231f20"/><path d="M255.94,191.66a.5.5,0,0,1-.5-.5V52.09a.51.51,0,0,1,.5-.5.5.5,0,0,1,.5.5V191.16A.5.5,0,0,1,255.94,191.66Z" fill="#231f20"/><path d="M268.92,191.66h-64.1a.5.5,0,0,1,0-1h64.1a.5.5,0,0,1,0,1Z" fill="#231f20"/><path d="M268.28,62H204.72a.5.5,0,1,1,0-1h63.56a.5.5,0,0,1,0,1Z" fill="#231f20"/><path d="M268.28,78.18H204.72a.51.51,0,0,1-.5-.5.5.5,0,0,1,.5-.5h63.56a.5.5,0,0,1,.5.5A.5.5,0,0,1,268.28,78.18Z" fill="#231f20"/><path d="M268.28,94.36H204.72a.5.5,0,0,1-.5-.5.51.51,0,0,1,.5-.5h63.56a.5.5,0,0,1,.5.5A.5.5,0,0,1,268.28,94.36Z" fill="#231f20"/><path d="M268.28,110.55H204.72a.51.51,0,0,1-.5-.5.5.5,0,0,1,.5-.5h63.56a.5.5,0,0,1,.5.5A.5.5,0,0,1,268.28,110.55Z" fill="#231f20"/><path d="M268.28,126.73H204.72a.5.5,0,0,1-.5-.5.51.51,0,0,1,.5-.5h63.56a.5.5,0,0,1,.5.5A.5.5,0,0,1,268.28,126.73Z" fill="#231f20"/><path d="M268.28,142.92H204.72a.51.51,0,0,1-.5-.5.5.5,0,0,1,.5-.5h63.56a.5.5,0,0,1,.5.5A.5.5,0,0,1,268.28,142.92Z" fill="#231f20"/><path d="M268.28,159.1H204.72a.5.5,0,0,1-.5-.5.51.51,0,0,1,.5-.5h63.56a.5.5,0,0,1,.5.5A.5.5,0,0,1,268.28,159.1Z" fill="#231f20"/><path d="M268.28,175.29H204.72a.51.51,0,0,1-.5-.5.5.5,0,0,1,.5-.5h63.56a.5.5,0,0,1,.5.5A.5.5,0,0,1,268.28,175.29Z" fill="#231f20"/><rect x="153.29" y="57.66" width="44.23" height="159.75" fill="#fff"/><path d="M197.52,217.91H153.29a.5.5,0,0,1-.5-.5V57.66a.5.5,0,0,1,.5-.5h44.23a.5.5,0,0,1,.5.5V217.41A.5.5,0,0,1,197.52,217.91Zm-43.73-1H197V58.16H153.79Z" fill="#231f20"/><rect x="127.18" y="57.66" width="26.11" height="159.75" transform="translate(280.47 275.08) rotate(180)" fill="#d1d3d4"/><path d="M153.29,217.91H127.18a.5.5,0,0,1-.5-.5V57.66a.5.5,0,0,1,.5-.5h26.11a.5.5,0,0,1,.5.5V217.41A.5.5,0,0,1,153.29,217.91Zm-25.61-1h25.11V58.16H127.68Z" fill="#231f20"/><rect x="158.08" y="63.42" width="5.51" height="148.24" fill="#231f20"/><path d="M163.58,212.16h-5.5a.5.5,0,0,1-.5-.5V63.42a.5.5,0,0,1,.5-.5h5.5a.5.5,0,0,1,.5.5V211.66A.5.5,0,0,1,163.58,212.16Zm-5-1h4.5V63.92h-4.5Z" fill="#231f20"/><rect x="167.79" y="63.42" width="5.51" height="148.24" fill="#231f20"/><path d="M173.3,212.16h-5.51a.51.51,0,0,1-.5-.5V63.42a.5.5,0,0,1,.5-.5h5.51a.5.5,0,0,1,.5.5V211.66A.5.5,0,0,1,173.3,212.16Zm-5-1h4.51V63.92h-4.51Z" fill="#231f20"/><rect x="177.51" y="63.42" width="5.51" height="148.24" fill="#231f20"/><path d="M183,212.16h-5.51a.51.51,0,0,1-.5-.5V63.42a.5.5,0,0,1,.5-.5H183a.5.5,0,0,1,.5.5V211.66A.5.5,0,0,1,183,212.16Zm-5-1h4.51V63.92H178Z" fill="#231f20"/><rect x="187.23" y="63.42" width="5.51" height="148.24" fill="#231f20"/><path d="M192.74,212.16h-5.51a.5.5,0,0,1-.5-.5V63.42a.5.5,0,0,1,.5-.5h5.51a.5.5,0,0,1,.5.5V211.66A.51.51,0,0,1,192.74,212.16Zm-5-1h4.51V63.92h-4.51Z" fill="#231f20"/><rect x="131.57" y="63.42" width="3.83" height="148.24" fill="#231f20"/><path d="M135.4,212.16h-3.83a.51.51,0,0,1-.5-.5V63.42a.5.5,0,0,1,.5-.5h3.83a.5.5,0,0,1,.5.5V211.66A.5.5,0,0,1,135.4,212.16Zm-3.33-1h2.83V63.92h-2.83Z" fill="#231f20"/><rect x="138.32" y="63.42" width="3.83" height="148.24" fill="#231f20"/><path d="M142.15,212.16h-3.83a.51.51,0,0,1-.5-.5V63.42a.5.5,0,0,1,.5-.5h3.83a.5.5,0,0,1,.5.5V211.66A.5.5,0,0,1,142.15,212.16Zm-3.33-1h2.83V63.92h-2.83Z" fill="#231f20"/><rect x="145.08" y="63.42" width="3.83" height="148.24" fill="#231f20"/><path d="M148.9,212.16h-3.82a.5.5,0,0,1-.5-.5V63.42a.5.5,0,0,1,.5-.5h3.82a.5.5,0,0,1,.5.5V211.66A.5.5,0,0,1,148.9,212.16Zm-3.32-1h2.82V63.92h-2.82Z" fill="#231f20"/><rect x="153.29" y="51.36" width="38.35" height="6.3" fill="#fff"/><path d="M191.64,58.16H153.29a.5.5,0,0,1-.5-.5v-6.3a.5.5,0,0,1,.5-.5h38.35a.5.5,0,0,1,.5.5v6.3A.5.5,0,0,1,191.64,58.16Zm-37.85-1h37.35v-5.3H153.79Z" fill="#231f20"/><rect x="134.12" y="51.36" width="19.18" height="6.3" fill="#d1d3d4"/><path d="M153.29,58.16H134.12a.5.5,0,0,1-.5-.5v-6.3a.5.5,0,0,1,.5-.5h19.17a.5.5,0,0,1,.5.5v6.3A.5.5,0,0,1,153.29,58.16Zm-18.67-1h18.17v-5.3H134.62Z" fill="#231f20"/><rect x="132.05" y="48.78" width="21.24" height="2.58" fill="#d1d3d4"/><path d="M153.29,51.86H132.05a.5.5,0,0,1-.5-.5V48.78a.5.5,0,0,1,.5-.5h21.24a.5.5,0,0,1,.5.5v2.58A.5.5,0,0,1,153.29,51.86Zm-20.74-1h20.24V49.28H132.55Z" fill="#231f20"/><rect x="153.29" y="48.78" width="39.97" height="2.58" fill="#d1d3d4"/><path d="M193.26,51.86h-40a.5.5,0,0,1-.5-.5V48.78a.5.5,0,0,1,.5-.5h40a.5.5,0,0,1,.5.5v2.58A.5.5,0,0,1,193.26,51.86Zm-39.47-1h39V49.28h-39Z" fill="#231f20"/><rect x="49.33" y="102.88" width="79.36" height="114.53" fill="#fff"/><path d="M128.68,217.91H49.33a.5.5,0,0,1-.5-.5V102.88a.5.5,0,0,1,.5-.5h79.35a.5.5,0,0,1,.5.5V217.41A.5.5,0,0,1,128.68,217.91Zm-78.85-1h78.35V103.38H49.83Z" fill="#231f20"/><path d="M70.91,217.91a.5.5,0,0,1-.5-.5v-78a.5.5,0,0,1,.5-.5.5.5,0,0,1,.5.5v78A.5.5,0,0,1,70.91,217.91Z" fill="#231f20"/><rect x="81.78" y="198.93" width="39.1" height="14.1" fill="#231f20"/><path d="M120.88,213.52H81.78a.5.5,0,0,1-.5-.5V198.93a.5.5,0,0,1,.5-.5h39.1a.5.5,0,0,1,.5.5V213A.5.5,0,0,1,120.88,213.52Zm-38.6-1h38.1V199.43H82.28Z" fill="#231f20"/><rect x="49.33" y="102.88" width="21.59" height="114.53" fill="#d1d3d4"/><path d="M70.91,217.91H49.33a.5.5,0,0,1-.5-.5V102.88a.5.5,0,0,1,.5-.5H70.91a.5.5,0,0,1,.5.5V217.41A.5.5,0,0,1,70.91,217.91Zm-21.08-1H70.41V103.38H49.83Z" fill="#231f20"/><rect x="61.54" y="102.2" width="69.38" height="3.34" fill="#fff"/><path d="M130.93,106H61.54a.51.51,0,0,1-.5-.5V102.2a.51.51,0,0,1,.5-.5h69.39a.51.51,0,0,1,.5.5v3.34A.51.51,0,0,1,130.93,106ZM62,105h68.39V102.7H62Z" fill="#231f20"/><rect x="46.43" y="102.2" width="24.49" height="3.34" fill="#d1d3d4"/><path d="M70.91,106H46.43a.5.5,0,0,1-.5-.5V102.2a.5.5,0,0,1,.5-.5H70.91a.5.5,0,0,1,.5.5v3.34A.5.5,0,0,1,70.91,106Zm-24-1H70.41V102.7H46.93Z" fill="#231f20"/><rect x="61.54" y="112.09" width="67.14" height="3.34" fill="#fff"/><path d="M128.68,115.92H61.54a.5.5,0,0,1-.5-.5v-3.33a.5.5,0,0,1,.5-.5h67.14a.5.5,0,0,1,.5.5v3.33A.5.5,0,0,1,128.68,115.92Zm-66.64-1h66.14v-2.33H62Z" fill="#231f20"/><rect x="46.43" y="112.09" width="24.49" height="3.34" fill="#d1d3d4"/><path d="M70.91,115.92H46.43a.5.5,0,0,1-.5-.5v-3.33a.5.5,0,0,1,.5-.5H70.91a.5.5,0,0,1,.5.5v3.33A.5.5,0,0,1,70.91,115.92Zm-24-1H70.41v-2.33H46.93Z" fill="#231f20"/><rect x="61.54" y="121.97" width="67.14" height="3.34" fill="#fff"/><path d="M128.68,125.81H61.54a.51.51,0,0,1-.5-.5V122a.5.5,0,0,1,.5-.5h67.14a.5.5,0,0,1,.5.5v3.34A.5.5,0,0,1,128.68,125.81Zm-66.64-1h66.14v-2.34H62Z" fill="#231f20"/><rect x="46.43" y="121.97" width="24.49" height="3.34" fill="#d1d3d4"/><path d="M70.91,125.81H46.43a.5.5,0,0,1-.5-.5V122a.5.5,0,0,1,.5-.5H70.91a.5.5,0,0,1,.5.5v3.34A.5.5,0,0,1,70.91,125.81Zm-24-1H70.41v-2.34H46.93Z" fill="#231f20"/><rect x="61.54" y="131.85" width="67.14" height="3.34" fill="#fff"/><path d="M128.68,135.69H61.54a.5.5,0,0,1-.5-.5v-3.34a.51.51,0,0,1,.5-.5h67.14a.5.5,0,0,1,.5.5v3.34A.5.5,0,0,1,128.68,135.69Zm-66.64-1h66.14v-2.34H62Z" fill="#231f20"/><rect x="46.43" y="131.85" width="24.49" height="3.34" fill="#d1d3d4"/><path d="M70.91,135.69H46.43a.5.5,0,0,1-.5-.5v-3.34a.5.5,0,0,1,.5-.5H70.91a.5.5,0,0,1,.5.5v3.34A.5.5,0,0,1,70.91,135.69Zm-24-1H70.41v-2.34H46.93Z" fill="#231f20"/><rect x="61.54" y="141.74" width="67.14" height="3.34" fill="#fff"/><path d="M128.68,145.57H61.54a.5.5,0,0,1-.5-.5v-3.33a.5.5,0,0,1,.5-.5h67.14a.5.5,0,0,1,.5.5v3.33A.5.5,0,0,1,128.68,145.57Zm-66.64-1h66.14v-2.33H62Z" fill="#231f20"/><rect x="46.43" y="141.74" width="24.49" height="3.34" fill="#d1d3d4"/><path d="M70.91,145.57H46.43a.5.5,0,0,1-.5-.5v-3.33a.5.5,0,0,1,.5-.5H70.91a.5.5,0,0,1,.5.5v3.33A.5.5,0,0,1,70.91,145.57Zm-24-1H70.41v-2.33H46.93Z" fill="#231f20"/><rect x="61.54" y="151.62" width="67.14" height="3.34" fill="#fff"/><path d="M128.68,155.46H61.54a.51.51,0,0,1-.5-.5v-3.34a.51.51,0,0,1,.5-.5h67.14a.5.5,0,0,1,.5.5V155A.5.5,0,0,1,128.68,155.46Zm-66.64-1h66.14v-2.34H62Z" fill="#231f20"/><rect x="46.43" y="151.62" width="24.49" height="3.34" fill="#d1d3d4"/><path d="M70.91,155.46H46.43a.5.5,0,0,1-.5-.5v-3.34a.5.5,0,0,1,.5-.5H70.91a.5.5,0,0,1,.5.5V155A.5.5,0,0,1,70.91,155.46Zm-24-1H70.41v-2.34H46.93Z" fill="#231f20"/><rect x="61.54" y="161.51" width="67.14" height="3.34" fill="#fff"/><path d="M128.68,165.34H61.54a.5.5,0,0,1-.5-.5v-3.33a.5.5,0,0,1,.5-.5h67.14a.5.5,0,0,1,.5.5v3.33A.5.5,0,0,1,128.68,165.34Zm-66.64-1h66.14V162H62Z" fill="#231f20"/><rect x="46.43" y="161.51" width="24.49" height="3.34" fill="#d1d3d4"/><path d="M70.91,165.34H46.43a.5.5,0,0,1-.5-.5v-3.33a.5.5,0,0,1,.5-.5H70.91a.5.5,0,0,1,.5.5v3.33A.5.5,0,0,1,70.91,165.34Zm-24-1H70.41V162H46.93Z" fill="#231f20"/><rect x="61.54" y="171.39" width="67.14" height="3.34" fill="#fff"/><path d="M128.68,175.23H61.54a.51.51,0,0,1-.5-.5v-3.34a.5.5,0,0,1,.5-.5h67.14a.5.5,0,0,1,.5.5v3.34A.5.5,0,0,1,128.68,175.23Zm-66.64-1h66.14v-2.34H62Z" fill="#231f20"/><rect x="46.43" y="171.39" width="24.49" height="3.34" fill="#d1d3d4"/><path d="M70.91,175.23H46.43a.5.5,0,0,1-.5-.5v-3.34a.5.5,0,0,1,.5-.5H70.91a.5.5,0,0,1,.5.5v3.34A.5.5,0,0,1,70.91,175.23Zm-24-1H70.41v-2.34H46.93Z" fill="#231f20"/><rect x="61.54" y="181.27" width="67.14" height="3.34" fill="#fff"/><path d="M128.68,185.11H61.54a.5.5,0,0,1-.5-.5v-3.34a.51.51,0,0,1,.5-.5h67.14a.5.5,0,0,1,.5.5v3.34A.5.5,0,0,1,128.68,185.11Zm-66.64-1h66.14v-2.34H62Z" fill="#231f20"/><rect x="46.43" y="181.27" width="24.49" height="3.34" fill="#d1d3d4"/><path d="M70.91,185.11H46.43a.5.5,0,0,1-.5-.5v-3.34a.5.5,0,0,1,.5-.5H70.91a.5.5,0,0,1,.5.5v3.34A.5.5,0,0,1,70.91,185.11Zm-24-1H70.41v-2.34H46.93Z" fill="#231f20"/><rect x="61.54" y="191.16" width="67.14" height="3.34" fill="#fff"/><path d="M128.68,195H61.54a.51.51,0,0,1-.5-.5v-3.34a.5.5,0,0,1,.5-.5h67.14a.5.5,0,0,1,.5.5v3.34A.5.5,0,0,1,128.68,195ZM62,194h66.14v-2.34H62Z" fill="#231f20"/><rect x="46.43" y="191.16" width="24.49" height="3.34" fill="#d1d3d4"/><path d="M70.91,195H46.43a.5.5,0,0,1-.5-.5v-3.34a.5.5,0,0,1,.5-.5H70.91a.5.5,0,0,1,.5.5v3.34A.5.5,0,0,1,70.91,195Zm-24-1H70.41v-2.34H46.93Z" fill="#231f20"/><path d="M151.64,199.3a13.32,13.32,0,1,1-26.63,0c0-7.35,6-32,13.31-32S151.64,192,151.64,199.3Z" fill="#126cff"/><path d="M138.72,222.7a1,1,0,0,1-1-1V191.79a1,1,0,0,1,2,0V221.7A1,1,0,0,1,138.72,222.7Z" fill="#231f20"/><path d="M269.25,200.51a13.31,13.31,0,1,1-26.62,0c0-7.35,6-32,13.31-32S269.25,193.16,269.25,200.51Z" fill="#126cff"/><path d="M256.34,223.91a1,1,0,0,1-1-1V193a1,1,0,1,1,2,0v29.91A1,1,0,0,1,256.34,223.91Z" fill="#231f20"/><path d="M111.26,221.71c-.83-1.89-2.8-5.11-7.55-9.22-7.76-6.7-13.52,0-13.52,0C78.3,198.28,64.54,211,64.54,211c-10-2.48-16.75,7.39-18.72,10.75Z" fill="#126cff"/><path d="M327.46,221.71c-.82-1.89-2.79-5.11-7.54-9.22-7.76-6.7-13.52,0-13.52,0-11.89-14.21-25.65-1.53-25.65-1.53-10-2.48-16.75,7.39-18.72,10.75Z" fill="#126cff"/><path d="M219.48,221.71c-.82-1.89-2.8-5.11-7.55-9.22-7.75-6.7-13.51,0-13.51,0-11.89-14.21-25.66-1.53-25.66-1.53-10-2.48-16.74,7.39-18.71,10.75Z" fill="#126cff"/><path d="M246.29,221.71c-2-3.36-8.71-13.23-18.72-10.75,0,0-13.77-12.68-25.66,1.53,0,0-5.75-6.7-13.51,0-4.75,4.11-6.73,7.33-7.55,9.22Z" fill="#126cff"/><path d="M354.18,235.35H46.43a.5.5,0,0,1-.5-.5.5.5,0,0,1,.5-.5H354.18a.5.5,0,0,1,.5.5A.5.5,0,0,1,354.18,235.35Z" fill="#d1d3d4"/><path d="M354.18,270.64H46.43a.5.5,0,0,1-.5-.5.5.5,0,0,1,.5-.5H354.18a.5.5,0,0,1,.5.5A.5.5,0,0,1,354.18,270.64Z" fill="#d1d3d4"/><path d="M58.43,253h-12a.5.5,0,0,1-.5-.5.5.5,0,0,1,.5-.5h12a.51.51,0,0,1,.5.5A.5.5,0,0,1,58.43,253Z" fill="#d1d3d4"/><path d="M79.55,253h-12a.5.5,0,0,1-.5-.5.51.51,0,0,1,.5-.5h12a.5.5,0,0,1,.5.5A.5.5,0,0,1,79.55,253Z" fill="#d1d3d4"/><path d="M100.68,253h-12a.5.5,0,0,1-.5-.5.5.5,0,0,1,.5-.5h12a.51.51,0,0,1,.5.5A.5.5,0,0,1,100.68,253Z" fill="#d1d3d4"/><path d="M121.8,253h-12a.5.5,0,0,1-.5-.5.51.51,0,0,1,.5-.5h12a.5.5,0,0,1,.5.5A.5.5,0,0,1,121.8,253Z" fill="#d1d3d4"/><path d="M142.93,253h-12a.5.5,0,0,1-.5-.5.5.5,0,0,1,.5-.5h12a.51.51,0,0,1,.5.5A.5.5,0,0,1,142.93,253Z" fill="#d1d3d4"/><path d="M164.05,253h-12a.5.5,0,0,1-.5-.5.51.51,0,0,1,.5-.5h12a.5.5,0,0,1,.5.5A.5.5,0,0,1,164.05,253Z" fill="#d1d3d4"/><path d="M185.18,253h-12a.5.5,0,0,1-.5-.5.5.5,0,0,1,.5-.5h12a.51.51,0,0,1,.5.5A.5.5,0,0,1,185.18,253Z" fill="#d1d3d4"/><path d="M206.3,253h-12a.5.5,0,0,1-.5-.5.51.51,0,0,1,.5-.5h12a.5.5,0,0,1,.5.5A.5.5,0,0,1,206.3,253Z" fill="#d1d3d4"/><path d="M227.43,253h-12a.5.5,0,0,1-.5-.5.5.5,0,0,1,.5-.5h12a.51.51,0,0,1,.5.5A.5.5,0,0,1,227.43,253Z" fill="#d1d3d4"/><path d="M248.55,253h-12a.5.5,0,0,1-.5-.5.51.51,0,0,1,.5-.5h12a.5.5,0,0,1,.5.5A.5.5,0,0,1,248.55,253Z" fill="#d1d3d4"/><path d="M269.68,253h-12a.5.5,0,0,1-.5-.5.5.5,0,0,1,.5-.5h12a.5.5,0,0,1,.5.5A.5.5,0,0,1,269.68,253Z" fill="#d1d3d4"/><path d="M290.8,253h-12a.5.5,0,0,1-.5-.5.5.5,0,0,1,.5-.5h12a.5.5,0,0,1,.5.5A.5.5,0,0,1,290.8,253Z" fill="#d1d3d4"/><path d="M311.93,253h-12a.5.5,0,0,1-.5-.5.5.5,0,0,1,.5-.5h12a.5.5,0,0,1,.5.5A.5.5,0,0,1,311.93,253Z" fill="#d1d3d4"/><path d="M333.05,253h-12a.5.5,0,0,1-.5-.5.5.5,0,0,1,.5-.5h12a.5.5,0,0,1,.5.5A.5.5,0,0,1,333.05,253Z" fill="#d1d3d4"/><path d="M354.18,253h-12a.5.5,0,0,1-.5-.5.5.5,0,0,1,.5-.5h12a.5.5,0,0,1,.5.5A.5.5,0,0,1,354.18,253Z" fill="#d1d3d4"/><path d="M95.65,259.17H67.52c-4.33,0-14.1-3-14.61-4s0-6.21,0-6.21h1.27s-.08-5.78.51-6.54,7.31-.85,8.29-1.11,6.41-5.35,19.41-6.54,25,3,29.88,7.65c0,0,12.19.85,16.61,1.36s8.92,3,9.09,3.57.43,2.66.43,2.66,1.27,1.08,1.36,1.76,0,4.93,0,5.86-1.28,1.27-2,1.53S95.65,259.17,95.65,259.17Z" fill="#126cff"/><circle cx="69.35" cy="256.39" r="6.37" fill="#231f20"/><path d="M69.35,263.26a6.87,6.87,0,1,1,6.87-6.87A6.88,6.88,0,0,1,69.35,263.26Zm0-12.74a5.87,5.87,0,1,0,5.87,5.87A5.87,5.87,0,0,0,69.35,250.52Z" fill="#231f20"/><circle cx="69.35" cy="256.39" r="4.04" fill="#fff"/><path d="M69.35,260.93a4.54,4.54,0,1,1,4.54-4.54A4.55,4.55,0,0,1,69.35,260.93Zm0-8.08a3.54,3.54,0,1,0,3.54,3.54A3.55,3.55,0,0,0,69.35,252.85Z" fill="#231f20"/><circle cx="125.04" cy="256.39" r="6.37" fill="#231f20"/><path d="M125,263.26a6.87,6.87,0,1,1,6.87-6.87A6.88,6.88,0,0,1,125,263.26Zm0-12.74a5.87,5.87,0,1,0,5.87,5.87A5.87,5.87,0,0,0,125,250.52Z" fill="#231f20"/><circle cx="125.04" cy="256.39" r="4.04" fill="#fff"/><path d="M125,260.93a4.54,4.54,0,1,1,4.54-4.54A4.55,4.55,0,0,1,125,260.93Zm0-8.08a3.54,3.54,0,1,0,3.54,3.54A3.55,3.55,0,0,0,125,252.85Z" fill="#231f20"/><path d="M85.48,243.73v-8s-8.7.86-12.09,2.73c-4.4,2.43-7.58,5.29-5.79,5.29Z" fill="#231f20"/><path d="M108.11,243.73c-.17-.5-4.4-4.22-8.28-5.77a37.3,37.3,0,0,0-12.27-2.2v8Z" fill="#231f20"/><path d="M86.73,257.7a.25.25,0,0,1-.25-.25v-12.8a.25.25,0,0,1,.5,0v12.8A.25.25,0,0,1,86.73,257.7Z" fill="#231f20"/><path d="M133.57,252.08h5.64a0,0,0,0,1,0,0v3.48a0,0,0,0,1,0,0h-3.45a2.18,2.18,0,0,1-2.18-2.18v-1.29A0,0,0,0,1,133.57,252.08Z" fill="#fff"/><path d="M337.32,256.29c-.68,1.5-1.6,3.85-4.91,3.85s-82.54.54-84.93,0a4.72,4.72,0,0,1-3.15-3.11s-.36-5-.19-7a1.12,1.12,0,0,1,0-.27,3.24,3.24,0,0,1,1.6-2.4,9.94,9.94,0,0,1,.34-4.23c.68-1.59,9.13-8.66,9.13-8.66s-1.83-.47-2.17-1.3,35.59-2.8,42-1.51,22,12.42,22,12.42,16.27.2,18,1.68S338,254.79,337.32,256.29Z" fill="#126cff"/><circle cx="262.2" cy="259.48" r="6.45" fill="#231f20"/><circle cx="262.2" cy="259.48" r="3.19" fill="#fff"/><path d="M262.2,263.18a3.7,3.7,0,1,1,3.69-3.7A3.7,3.7,0,0,1,262.2,263.18Zm0-6.39a2.7,2.7,0,1,0,2.69,2.69A2.7,2.7,0,0,0,262.2,256.79Z" fill="#231f20"/><circle cx="318.48" cy="259.48" r="6.45" fill="#231f20"/><circle cx="318.48" cy="259.48" r="3.19" fill="#fff"/><path d="M318.48,263.18a3.7,3.7,0,1,1,3.7-3.7A3.7,3.7,0,0,1,318.48,263.18Zm0-6.39a2.7,2.7,0,1,0,2.7,2.69A2.7,2.7,0,0,0,318.48,256.79Z" fill="#231f20"/><path d="M255.75,235.45c-.28.18-7.25,6.68-7.25,6.68a11.71,11.71,0,0,0,3.75-.93c1.94-.86,5.27-4.66,5.27-4.66Z" fill="#231f20"/><path d="M248.5,242.63a.5.5,0,0,1-.34-.86c2.62-2.45,7.05-6.57,7.34-6.74a.47.47,0,0,1,.51,0l1.77,1.08a.5.5,0,0,1,.12.76c-.14.16-3.43,3.89-5.45,4.78a11.8,11.8,0,0,1-3.92,1Zm7.3-6.56c-.83.73-3.51,3.21-5.78,5.33a11.57,11.57,0,0,0,2-.66c1.43-.64,3.77-3.08,4.7-4.09Z" fill="#231f20"/><path d="M267.34,234.54s-4.34.51-6.16,1.63c-.55,2.62,1.08,8.8,6.39,8.87Z" fill="#231f20"/><path d="M267.57,245.54h0a6.3,6.3,0,0,1-5-2.45,9.37,9.37,0,0,1-1.89-7,.49.49,0,0,1,.23-.33c1.89-1.16,6.18-1.68,6.36-1.7a.51.51,0,0,1,.39.12.48.48,0,0,1,.17.37l.23,10.5a.51.51,0,0,1-.15.37A.5.5,0,0,1,267.57,245.54Zm-5.94-9.06a8.56,8.56,0,0,0,1.73,6,5.32,5.32,0,0,0,3.7,2.05l-.21-9.41A19.65,19.65,0,0,0,261.63,236.48Z" fill="#231f20"/><path d="M251.53,247.33a6.46,6.46,0,0,1-2.11,2.22c-.79.43-2.9.48-4.37.45q0-.15,0-.27a3.24,3.24,0,0,1,1.6-2.4Z" fill="#fff"/><path d="M333.5,256.54H246.16a.25.25,0,0,1,0-.5H333.5a.25.25,0,0,1,0,.5Z" fill="#231f20"/><path d="M270,245.24v-10.7s11-.21,13.71.06l-.35,10.73Z" fill="#231f20"/><path d="M283.32,245.83h0L270,245.74a.5.5,0,0,1-.5-.5v-10.7a.51.51,0,0,1,.49-.5c.45,0,11-.21,13.77.06a.51.51,0,0,1,.45.52l-.35,10.73A.5.5,0,0,1,283.32,245.83Zm-12.86-1.08,12.38.08.31-9.77c-2.87-.18-10.66-.06-12.69,0Z" fill="#231f20"/><path d="M286.41,245.33V234.54s9.17-.27,11.3.42,14.55,10.4,14.33,10.37S286.41,245.33,286.41,245.33Z" fill="#231f20"/><path d="M312,245.83H312c-.46,0-16.93,0-25.56,0h0a.51.51,0,0,1-.36-.15.5.5,0,0,1-.14-.35V234.54a.5.5,0,0,1,.48-.5c.38,0,9.29-.27,11.47.44,1.19.38,5.07,3.19,8.12,5.47,6.66,5,6.62,5.15,6.55,5.49A.51.51,0,0,1,312,245.83ZM286.91,235v9.8c9.31,0,19.93,0,23.74,0-3-2.36-11.47-8.86-13.09-9.39S289.74,235,286.91,235Z" fill="#231f20"/><path d="M335.67,251.1h-6.11a4.31,4.31,0,0,0,1.6,1.94c1.2.79,5,.28,5,.28Z" fill="#fff"/></g></svg>