<svg xmlns="http://www.w3.org/2000/svg" viewBox="0 0 400 300"><g id="_343_taxi_driver_flatline" data-name="#343_taxi_driver_flatline"><polygon points="181.54 30.14 218.18 30.14 221.87 47.33 177.85 47.33 181.54 30.14"/><rect x="174.53" y="46.11" width="50.66" height="4.65" rx="2.13"/><path d="M300.29,126.19c-.35,3.84-1.05,6.72-5.64,8.16a26.68,26.68,0,0,1-7,1c-.68,0-1.39,0-2.15,0H111.38a3,3,0,0,1-.63-.07c-2.11-.39-6.18-2.64-7.7-8.6-1.7-6.63,10.9-47.23,14.81-56.93C122,59.5,153.93,53.66,192.45,54c36.26.28,81.84,4.33,88.21,9.18S300.8,120.58,300.29,126.19Z" fill="#fff"/><rect x="187.87" y="58.58" width="27.76" height="7.76" rx="2.69" fill="#126cff"/><path d="M200,54.9s-.33,5.08.29,5.74a2,2,0,0,0,2.76,0c.76-.81.62-5.74.62-5.74Z"/><path d="M290.24,132.78a25.88,25.88,0,0,1-6.65.93c-.65,0-1.34,0-2.06,0H115.65a3.57,3.57,0,0,1-.6-.06c1.18-9.57,4.09-26.75,9.83-28.84a36,36,0,0,1,7.93-1c10.21-.63,27.65-.51,42.51,0,14.22.5,26.08,1.36,27,2.25a8.63,8.63,0,0,1,2.47,4.86s0-4.13,2.91-5.1c1.24-.42,14.68-1.45,30-2.08s32.44-.87,41.07.31c3,.41,4.93,1,5.46,1.77C286.67,109.44,289,123.85,290.24,132.78Z" fill="#d1d3d4"/><path d="M85.7,120.39s-18.46-4.69-24.13,4-.48,12.95,8.75,13.92,15.06,1.62,16.84,0,1.45-15.7,0-16.83Z"/><polygon points="86.75 135.53 96.14 137.15 94.61 141.2 83.11 138.37 86.75 135.53"/><path d="M314.58,120.39s18.46-4.69,24.12,4,.49,12.95-8.74,13.92-15.06,1.62-16.84,0-1.45-15.7,0-16.83Z"/><polygon points="313.53 135.53 304.14 137.15 305.67 141.2 317.17 138.37 313.53 135.53"/><path d="M77.93,203.13h29.79a0,0,0,0,1,0,0v40.06A8.84,8.84,0,0,1,98.88,252H86.76a8.84,8.84,0,0,1-8.84-8.84V203.13A0,0,0,0,1,77.93,203.13Z"/><path d="M292.81,203.13H322.6a0,0,0,0,1,0,0v40.06a8.84,8.84,0,0,1-8.84,8.84H301.64a8.84,8.84,0,0,1-8.84-8.84V203.13A0,0,0,0,1,292.81,203.13Z"/><path d="M138.14,80.84H171A13.76,13.76,0,0,1,184.74,94.6v46.6a0,0,0,0,1,0,0H124.38a0,0,0,0,1,0,0V94.6A13.76,13.76,0,0,1,138.14,80.84Z"/><path d="M234.38,80.84h32.84A13.76,13.76,0,0,1,281,94.6v46.6a0,0,0,0,1,0,0H220.62a0,0,0,0,1,0,0V94.6A13.76,13.76,0,0,1,234.38,80.84Z"/><path d="M124.56,147.93A134.4,134.4,0,0,1,123,131.64c-4.49.07,4.71-30.73,11.07-35,11.56-7.81,29.95-11.18,42.14,3.09,3.85,4.51,12.13,17.4,11.11,27.82-.29,2.92-4,4.11-8.19,4.18a107.51,107.51,0,0,0-.57,18.61Z" fill="#126cff"/><path d="M160.06,94.71l-3.41,20.67L154,124.46l-2.63-9.1-2.9-20.7A17.88,17.88,0,0,1,160.06,94.71Z" fill="#231f20"/><polygon points="154.03 103.3 150.94 100.92 154.03 98.53 157.12 100.92 154.03 103.3" fill="#fff"/><polygon points="156.66 115.38 154.03 124.47 151.4 115.36 152.99 102 153.02 101.73 155.04 101.73 155.07 102.02 156.66 115.38" fill="#fff"/><path d="M167.23,122.89c-14.47-11.62-28.35-29.54-28.35-29.54a11,11,0,0,0-4.67,2.47c2.83,6.68,16,19.77,27.17,28.58A17.68,17.68,0,0,1,167.23,122.89Z"/><path d="M152.94,121.25a18.46,18.46,0,0,0-18.23,15.53H140a13.26,13.26,0,0,1,25.87,0h5.3A18.47,18.47,0,0,0,152.94,121.25Z" fill="#fff"/><path d="M145.44,124.38a18.31,18.31,0,0,1,3.44,3c.47.48,1,1.26.48,1.74s-1.07.16-1.57-.11L144,127a6.66,6.66,0,0,1,3.36,3.14,1,1,0,0,1,.19.55.72.72,0,0,1-.7.62,2.09,2.09,0,0,1-1-.25c-1.66-.73-2.5-1.27-4.17-2,.87.53,1.3.51,2.16,1s2.42,2,2,2.62a1.22,1.22,0,0,1-1.41.34,30.63,30.63,0,0,1-3.61-1.1,4.2,4.2,0,0,1,2.51,1.79.72.72,0,0,1,.16.43c0,.46-.68.51-1.12.39-2.17-.61-4.08-2.08-6.32-2.28a2.46,2.46,0,0,1-1.57-.42c-1.6-1.55,1.43-5,2.68-6C139.85,123.83,142.23,122.44,145.44,124.38Z" fill="#fff"/><path d="M142.82,135.07a2.38,2.38,0,0,1-.56-.07,17.63,17.63,0,0,1-2.63-1.06,11,11,0,0,0-3.59-1.2h-.21a2.52,2.52,0,0,1-1.66-.55,2,2,0,0,1-.61-1.66c.12-1.89,2.26-4.29,3.33-5.09,2.64-2,5.3-3.6,8.8-1.48a18.6,18.6,0,0,1,3.54,3c.87.89,1.06,1.84.49,2.44-.33.34-1,.62-2.16,0h0l.26.41a1.59,1.59,0,0,1,.26.82,1.21,1.21,0,0,1-1.16,1.11,1.88,1.88,0,0,1-.72-.09,1.71,1.71,0,0,1,.22.54.9.9,0,0,1-.12.74,1.73,1.73,0,0,1-1.94.55l-.62-.16a.41.41,0,0,1,.05.09,1.18,1.18,0,0,1,.24.73.91.91,0,0,1-.39.69A1.43,1.43,0,0,1,142.82,135.07ZM142.41,124c-1.71,0-3.23,1-4.92,2.27-1,.72-2.84,2.9-2.93,4.36a1.08,1.08,0,0,0,.3.88,1.74,1.74,0,0,0,1,.27l.22,0a11.71,11.71,0,0,1,3.94,1.29,17.49,17.49,0,0,0,2.47,1,.94.94,0,0,0,.47,0L143,134a3.73,3.73,0,0,0-1.5-1.31l-.77-.28a.52.52,0,0,1-.31-.62.51.51,0,0,1,.6-.34,5.19,5.19,0,0,1,.86.31c.9.31,1.82.57,2.75.79.45.11.71.12.88-.14a5.35,5.35,0,0,0-1.84-1.89l-.06,0-.74-.38-.22-.08a7.88,7.88,0,0,1-1.16-.56.5.5,0,0,1,.46-.89c.5.22.93.43,1.33.62a7.17,7.17,0,0,1,.88.44c.59.3,1.18.6,2,.94a1.92,1.92,0,0,0,.76.22c.14,0,.24-.11.24-.15s-.08-.2-.12-.27a8.14,8.14,0,0,0-1.85-2.25l-1.31-.71a.5.5,0,0,1,.39-.92,5.07,5.07,0,0,1,1.47.79l2.38,1.28c.47.25.85.33,1,.2s-.12-.67-.48-1a18,18,0,0,0-3.34-2.89h0A5.25,5.25,0,0,0,142.41,124Z" fill="#231f20"/><path d="M161.68,123.71a17.66,17.66,0,0,0-3.44,3c-.47.48-1,1.26-.49,1.74s1.07.16,1.57-.11l3.77-2a6.6,6.6,0,0,0-3.35,3.14,1,1,0,0,0-.2.55.72.72,0,0,0,.71.62,2.08,2.08,0,0,0,1-.25c1.67-.73,2.51-1.27,4.17-2-.86.53-1.29.51-2.16,1s-2.41,2-2,2.62a1.22,1.22,0,0,0,1.41.34,30.06,30.06,0,0,0,3.61-1.1,4.2,4.2,0,0,0-2.51,1.79.77.77,0,0,0-.15.43c0,.46.68.51,1.12.39,2.16-.61,4.08-2.08,6.32-2.28a2.44,2.44,0,0,0,1.56-.42c1.6-1.55-1.43-5.06-2.68-6C167.27,123.15,164.89,121.77,161.68,123.71Z" fill="#fff"/><path d="M164.29,134.4a1.43,1.43,0,0,1-.81-.22.87.87,0,0,1-.38-.69,1.18,1.18,0,0,1,.23-.73l.06-.09-.62.15a1.7,1.7,0,0,1-1.94-.54.94.94,0,0,1-.13-.74,2.19,2.19,0,0,1,.22-.54,1.85,1.85,0,0,1-.71.09A1.23,1.23,0,0,1,159,130a1.5,1.5,0,0,1,.27-.82c.08-.13.16-.27.26-.41h0c-1.19.64-1.83.36-2.17,0-.57-.6-.38-1.56.49-2.44a18.21,18.21,0,0,1,3.54-3h0c3.51-2.12,6.17-.51,8.8,1.47,1.07.81,3.22,3.21,3.33,5.1a2.07,2.07,0,0,1-.6,1.66,2.55,2.55,0,0,1-1.66.55h-.21a11.08,11.08,0,0,0-3.6,1.2,17.84,17.84,0,0,1-2.63,1.06A2.31,2.31,0,0,1,164.29,134.4Zm1.37-2.42a3.8,3.8,0,0,0-1.49,1.32c-.06.1-.07.14-.08.14s.25,0,.49-.08a16.87,16.87,0,0,0,2.48-1,12,12,0,0,1,3.93-1.3h.23a1.69,1.69,0,0,0,1-.27,1,1,0,0,0,.3-.88c-.09-1.46-2-3.64-2.93-4.36-2.53-1.9-4.7-3.22-7.68-1.41h0A17,17,0,0,0,158.6,127c-.36.37-.65.87-.49,1s.51.05,1-.2l2.39-1.29a4.92,4.92,0,0,1,1.47-.78.5.5,0,0,1,.61.28.5.5,0,0,1-.22.64l-1.32.71a8.13,8.13,0,0,0-1.84,2.25.74.74,0,0,0-.13.27s.11.13.25.14a1.71,1.71,0,0,0,.75-.21c.78-.34,1.38-.64,2-.94a6,6,0,0,1,.88-.44c.39-.2.82-.4,1.32-.62a.51.51,0,0,1,.65.23.5.5,0,0,1-.19.66,7.15,7.15,0,0,1-1.15.55l-.22.09-.75.38-.06,0c-.83.51-1.82,1.63-1.81,2,.15.18.4.18.85.07.93-.22,1.85-.49,2.76-.79a4.33,4.33,0,0,1,.85-.31.51.51,0,0,1,.6.34.5.5,0,0,1-.3.62C166.18,131.8,165.92,131.9,165.66,132Zm-4-8.27h0Z" fill="#231f20"/><path d="M132.54,124.17a.5.5,0,0,1-.47-.67s4-11.26,6.18-17.7a.5.5,0,0,1,.94.33c-1.88,5.45-5,14.35-5.92,17l8-.81a.5.5,0,0,1,.55.45.49.49,0,0,1-.45.54l-8.78.9Z" fill="#231f20"/><path d="M167.75,123.39a24.57,24.57,0,0,1-2.53-.07.5.5,0,0,1,.18-1c.47.09,3.68.09,8.13,0-.43-2.56-2.23-13.11-2.85-18a.51.51,0,0,1,.43-.56.5.5,0,0,1,.56.44c.7,5.47,2.93,18.34,3,18.47a.52.52,0,0,1-.11.4.48.48,0,0,1-.37.19C171.64,123.35,169.38,123.39,167.75,123.39Z" fill="#231f20"/><path d="M165.83,78.5s3.7-7.39,2.3-9.32-2.36-1.24-2.37-1.23c1.5-1.07-.28-3.3-1.24-4.05a8.93,8.93,0,0,0-2.5-1.27,19.72,19.72,0,0,0-6.85-1.37,10.57,10.57,0,0,0-6.54,2.17c-2.87,2.32-3.79,5.26-3.48,8.85.22,2.57,1,5.13,1.15,7.65,2.94.29,5.91.66,8.89.73C157.56,80.72,164.46,81.24,165.83,78.5Z" fill="#fff"/><path d="M158.34,81.25c-.88,0-1.71,0-2.41,0l-.75,0c-2.43-.06-4.88-.32-7.25-.56l-1.68-.18a.51.51,0,0,1-.46-.48,33.32,33.32,0,0,0-.58-3.93c-.23-1.21-.47-2.46-.58-3.7-.34-4,.83-7,3.67-9.3a11,11,0,0,1,6.87-2.28,20,20,0,0,1,7,1.4,9.67,9.67,0,0,1,2.64,1.34c.79.62,2,2.1,2,3.41a1.69,1.69,0,0,1-.08.5,3.68,3.68,0,0,1,1.77,1.48c1.61,2.2-2.08,9.51-2.25,9.85C165.2,80.9,161.44,81.25,158.34,81.25Zm-11.56-1.79,1.26.13c2.34.25,4.77.5,7.16.56l.77,0c2.48.09,8.3.29,9.4-1.9h0c1.16-2.32,3.27-7.51,2.34-8.79s-1.45-1.22-1.66-1.1a.53.53,0,0,1-.71-.12.52.52,0,0,1,.11-.72h0a.79.79,0,0,0,.36-.66,4.21,4.21,0,0,0-1.62-2.57,8.47,8.47,0,0,0-2.35-1.18,18.7,18.7,0,0,0-6.67-1.34,10,10,0,0,0-6.22,2c-2.56,2.07-3.61,4.75-3.3,8.41.11,1.19.34,2.42.56,3.6A34,34,0,0,1,146.78,79.46Z" fill="#231f20"/><path d="M162.51,79.53c.75-3.18,6.15-3.58,5.6.19a5.6,5.6,0,0,1-1.68,3.46,3.32,3.32,0,0,1-3.64.57" fill="#fff"/><path d="M164.11,84.59a3.4,3.4,0,0,1-1.57-.38.52.52,0,0,1-.21-.7.52.52,0,0,1,.7-.21,2.81,2.81,0,0,0,3.06-.51,5.1,5.1,0,0,0,1.51-3.14c.22-1.55-.71-2-1.28-2.07A2.94,2.94,0,0,0,163,79.65a.51.51,0,0,1-1-.24,3.94,3.94,0,0,1,4.5-2.84,2.6,2.6,0,0,1,2.11,3.23,6.15,6.15,0,0,1-1.85,3.77A4.12,4.12,0,0,1,164.11,84.59Z" fill="#231f20"/><path d="M149.21,78.56c-.28-3.26-5.56-4.44-5.57-.63a5.55,5.55,0,0,0,1.16,3.66,3.31,3.31,0,0,0,3.52,1.1" fill="#fff"/><path d="M147.41,83.36a4,4,0,0,1-3-1.44,6.16,6.16,0,0,1-1.29-4A2.61,2.61,0,0,1,145.68,75a4,4,0,0,1,4,3.47.5.5,0,0,1-.47.56.52.52,0,0,1-.55-.47,2.92,2.92,0,0,0-3-2.53c-.59,0-1.57.3-1.58,1.86a5.18,5.18,0,0,0,1,3.33,2.83,2.83,0,0,0,2.95.95.51.51,0,0,1,.66.31.52.52,0,0,1-.31.66A3.26,3.26,0,0,1,147.41,83.36Z" fill="#231f20"/><path d="M148.5,94.66a6.14,6.14,0,0,0,5.43,3.56,6.82,6.82,0,0,0,6.15-2.71l0-2.27L160,88l0-4.91-9.62-.71-.61,4-.19,1.29Z" fill="#fff"/><path d="M154.53,98.75c-.21,0-.42,0-.64,0A6.61,6.61,0,0,1,148,94.84a.47.47,0,0,1,0-.26l1.88-12.29a.52.52,0,0,1,.55-.43l9.62.7a.51.51,0,0,1,.48.51l.07,12.43a.51.51,0,0,1-.08.29A7.24,7.24,0,0,1,154.53,98.75ZM149,94.59A5.64,5.64,0,0,0,154,97.7a6.3,6.3,0,0,0,5.6-2.36l-.07-11.78-8.67-.64Zm-.53.07h0Z" fill="#231f20"/><path d="M149.58,87.63a8.5,8.5,0,0,0,3,3c2,1.3,5,2.81,7.52,2.61L160,88a23.88,23.88,0,0,1-5.54-.37,15.72,15.72,0,0,1-4.72-1.28Z" fill="#231f20"/><path d="M159.6,93.76c-2.76,0-5.75-1.67-7.34-2.71a9,9,0,0,1-3.12-3.19.45.45,0,0,1,0-.3l.19-1.29a.48.48,0,0,1,.26-.37.53.53,0,0,1,.46,0,15.61,15.61,0,0,0,4.56,1.23,23,23,0,0,0,5.44.36.5.5,0,0,1,.37.13.52.52,0,0,1,.16.37l0,5.25a.5.5,0,0,1-.46.5Zm-9.5-6.22a8.12,8.12,0,0,0,2.71,2.67c1.2.79,4.16,2.54,6.75,2.55l0-4.25a25.23,25.23,0,0,1-5.14-.4,19.17,19.17,0,0,1-4.23-1Z" fill="#231f20"/><path d="M154.46,88.82l.86.06a7.39,7.39,0,0,0,7.91-6.83l.86-11.66-8.64,1.48-7-2.63-.85,11.67A7.38,7.38,0,0,0,154.46,88.82Z" fill="#fff"/><path d="M155.88,89.42l-.59,0-.86-.07h0a7.91,7.91,0,0,1-7.31-8.46L148,69.2a.51.51,0,0,1,.69-.44l6.83,2.57,8.5-1.45a.54.54,0,0,1,.44.12.52.52,0,0,1,.16.42l-.85,11.67a7.91,7.91,0,0,1-7.87,7.33ZM154.5,88.3l.86.07A6.88,6.88,0,0,0,162.72,82l.81-11-8,1.37a.63.63,0,0,1-.27,0L149,70l-.81,11a6.86,6.86,0,0,0,6.35,7.35Z" fill="#231f20"/><path d="M155.94,83.17a10.8,10.8,0,0,1-1.87-.17.52.52,0,0,1-.4-.61.51.51,0,0,1,.61-.4,10.46,10.46,0,0,0,1.86.15,15.78,15.78,0,0,0-.91-4.92.52.52,0,0,1,1-.3c.44,1.46,1.39,5,.73,5.9a.76.76,0,0,1-.61.34Z" fill="#231f20"/><ellipse cx="158.94" cy="75.83" rx="1.25" ry="0.51" transform="translate(71.68 228.8) rotate(-85.8)" fill="#231f20"/><ellipse cx="152.4" cy="75.04" rx="1.25" ry="0.51" transform="translate(66.41 221.54) rotate(-85.8)" fill="#231f20"/><path d="M155.5,85.63h-.25A7.62,7.62,0,0,1,150,82.68a.51.51,0,0,1,.11-.72.52.52,0,0,1,.72.1,6.68,6.68,0,0,0,4.5,2.54c1.86.06,3.73-.95,5.57-3a.52.52,0,0,1,.78.68C159.67,84.49,157.6,85.63,155.5,85.63Z" fill="#231f20"/><path d="M332.53,154.63c-1.7-11.41-24-16.27-24-16.27s-7-32.48-11.05-46.42c-5.36-18.69-8.06-36.61-36.55-40.81s-98.77-2.92-118.52,0-20.73,0-31.09,18.78S92.5,138.36,92.5,138.36,77,147.11,72.67,156.09s3.39,48.58,6.55,58.78,6.31,13.84,15.55,13.84,202.55,2.43,219.79-2.67S334.23,166.05,332.53,154.63ZM295.62,125c-.34,3.65-1,6.4-5.37,7.77a25.56,25.56,0,0,1-6.67.93c-.64,0-1.32,0-2.05,0H115.66a2.85,2.85,0,0,1-.61-.07c-2-.36-5.88-2.51-7.33-8.19-1.62-6.32,10.39-47.48,14.11-56.72,3.94-9.79,34.36-13.48,71.05-13.19,34.54.27,78,2.26,84,6.88S296.1,119.66,295.62,125Z" fill="#126cff"/><path d="M151.84,199.81s-7.77-25.74-7.53-28.42,2.18-6.07,3.76-6.55,102.37-1.22,104.8.48,3.89,4.37,3.65,6.32-4.62,25.26-5.83,28.17S156,204.91,151.84,199.81Z"/><path d="M261.54,192.6s.64-18.61,16.67-24.77,38.86-6.15,41.29-2.26,3.08,17.32-12,23.31S270.23,194.32,261.54,192.6Z" fill="#fff"/><path d="M276.61,194.26a85.52,85.52,0,0,1-15.17-1.16.5.5,0,0,1-.4-.51c0-.19.84-19,17-25.22,15.81-6.07,39.17-6.43,41.89-2.07,1.41,2.25,2.05,7,.53,11.58-1.27,3.88-4.52,9.19-12.75,12.47C298.4,193.05,286.46,194.26,276.61,194.26Zm-14.55-2.06c8.8,1.61,30.44,2.12,45.27-3.78,7.88-3.14,11-8.18,12.17-11.85,1.59-4.84.62-9.08-.42-10.74-2.25-3.59-25-3.55-40.69,2.47C264.2,173.75,262.29,189.41,262.06,192.2Z" fill="#231f20"/><path d="M140.59,193.9s-3.4-24.12-19.27-27-35.3-6-39,0-1.94,16.52,8.26,20.73S132.65,195.68,140.59,193.9Z" fill="#fff"/><path d="M134.57,194.85c-12.48,0-35.85-3.35-44.2-6.8a16.34,16.34,0,0,1-9.64-10,13.89,13.89,0,0,1,1.15-11.46c3.85-6.2,22.42-3.37,39.53-.23,6.66,1.22,12.17,6.38,16,14.9a53.58,53.58,0,0,1,3.72,12.56.5.5,0,0,1-.38.56A30.45,30.45,0,0,1,134.57,194.85ZM93.92,163.91c-5.42,0-9.71.83-11.2,3.21a12.89,12.89,0,0,0-1,10.63,15.27,15.27,0,0,0,9.06,9.37c9.55,3.94,40.62,7.93,49.27,6.38-.58-3.34-4.67-23.55-18.79-26.15C113.81,166,102.47,163.91,93.92,163.91Z" fill="#231f20"/><rect x="153.32" y="213.9" width="94.67" height="24.77" rx="7.25" fill="#fff"/><path d="M240.74,239.17H160.57a7.76,7.76,0,0,1-7.75-7.75V221.15a7.76,7.76,0,0,1,7.75-7.75h80.17a7.76,7.76,0,0,1,7.75,7.75v10.27A7.76,7.76,0,0,1,240.74,239.17ZM160.57,214.4a6.75,6.75,0,0,0-6.75,6.75v10.27a6.76,6.76,0,0,0,6.75,6.75h80.17a6.76,6.76,0,0,0,6.75-6.75V221.15a6.75,6.75,0,0,0-6.75-6.75Z" fill="#231f20"/><path d="M88.7,218.27s.24-10.2,4.12-12.39,32.79-1,36,0,7.77,11.17,7.28,12.39-3.4,2.91-4.12,2.67S88.37,221.9,88.7,218.27Z" fill="#fff"/><path d="M132.06,221.46a.84.84,0,0,1-.29-.05c-.21,0-2.41,0-5,0-18.66.11-36.21-.1-38.33-2.4a1,1,0,0,1-.29-.78c0-.59.33-10.52,4.38-12.79s33.38-1,36.34,0c2.5.77,5.19,6.06,6,7.66.48,1,2,4.4,1.64,5.39A6.94,6.94,0,0,1,132.06,221.46Zm-1.74-1.06a7.64,7.64,0,0,1,1.76.07c.5.06,3.09-1.35,3.51-2.39.26-1.11-4.07-10.83-7-11.72-3.14-1-31.82-2.14-35.55,0s-3.87,11.86-3.87,12v0c.61,1.55,13.27,2.26,37.62,2.12ZM88.7,218.27h0Z" fill="#231f20"/><path d="M316.5,218.27s-.24-10.2-4.12-12.39-32.79-1-35.95,0-7.77,11.17-7.28,12.39,3.4,2.91,4.12,2.67S316.83,221.9,316.5,218.27Z" fill="#fff"/><path d="M273.11,221.47a7,7,0,0,1-4.43-3c-.39-1,1.16-4.38,1.64-5.39.77-1.6,3.46-6.89,6-7.66,3-.91,32.19-2.29,36.34,0s4.37,12.2,4.38,12.79a1,1,0,0,1-.29.78c-2.12,2.3-19.67,2.51-38.33,2.4-2.54,0-4.74,0-5,0A1.1,1.1,0,0,1,273.11,221.47Zm25.33-16.32c-9.27,0-20,.64-21.86,1.21-2.9.89-7.23,10.61-7,11.74s3,2.44,3.51,2.36a46.33,46.33,0,0,1,5.26,0c24.39.15,37.05-.57,37.62-2.13h0c0-.1-.28-9.94-3.87-12C310.6,205.46,304.88,205.15,298.44,205.15Z" fill="#231f20"/><rect x="154.89" y="173.16" width="90.51" height="2.03" rx="1.02" fill="#fff"/><rect x="154.89" y="180.84" width="90.51" height="2.03" rx="1.02" fill="#fff"/><rect x="154.89" y="188.52" width="90.51" height="2.03" rx="1.02" fill="#fff"/><path d="M77.93,157.65a.5.5,0,0,1-.5-.5.5.5,0,0,1,.5-.5c1.09,0,110.62,0,248.55-2.45a.52.52,0,0,1,.5.49.5.5,0,0,1-.49.51C188.56,157.62,79,157.65,77.93,157.65Z" fill="#231f20"/><path d="M287.66,134.18H115.05a.5.5,0,0,1-.5-.5.51.51,0,0,1,.5-.5H287.66a.5.5,0,0,1,.5.5A.5.5,0,0,1,287.66,134.18Z" fill="#231f20"/><path d="M300,126.19c-.35,3.84-1.05,6.72-5.63,8.16a26.83,26.83,0,0,1-7,1c-.67,0-1.39,0-2.15,0H111.1a3,3,0,0,1-.63-.07c-2.11-.39-6.18-2.64-7.7-8.6-1.7-6.63,10.9-47.23,14.82-56.93C121.72,59.5,153.66,53.66,192.17,54c36.26.28,81.84,4.33,88.21,9.18S300.53,120.58,300,126.19Z" fill="#fff"/><rect x="187.59" y="58.58" width="27.76" height="7.76" rx="2.69" fill="#126cff"/><path d="M199.67,54.9s-.33,5.08.29,5.74a2,2,0,0,0,2.76,0c.76-.81.62-5.74.62-5.74Z"/><path d="M290,132.78a25.88,25.88,0,0,1-6.65.93c-.65,0-1.34,0-2.06,0H115.37a3.57,3.57,0,0,1-.6-.06c1.18-9.57,4.09-26.75,9.83-28.84a36,36,0,0,1,7.93-1c10.21-.63,27.65-.51,42.51,0,14.22.5,26.08,1.36,27,2.25a8.63,8.63,0,0,1,2.47,4.86s0-4.13,2.91-5.1c1.24-.42,14.68-1.45,30-2.08s32.44-.87,41.07.31c3,.41,4.93,1,5.46,1.77C286.39,109.44,288.71,123.85,290,132.78Z" fill="#d1d3d4"/><path d="M85.42,120.39s-18.46-4.69-24.12,4-.49,12.95,8.74,13.92,15.06,1.62,16.84,0,1.45-15.7,0-16.83Z"/><polygon points="86.47 135.53 95.86 137.15 94.33 141.2 82.83 138.37 86.47 135.53"/><path d="M314.3,120.39s18.46-4.69,24.13,4,.48,12.95-8.75,13.92-15.06,1.62-16.84,0-1.45-15.7,0-16.83Z"/><polygon points="313.25 135.53 303.86 137.15 305.39 141.2 316.89 138.37 313.25 135.53"/><path d="M77.65,203.13h29.79a0,0,0,0,1,0,0v40.06A8.84,8.84,0,0,1,98.6,252H86.48a8.84,8.84,0,0,1-8.84-8.84V203.13A0,0,0,0,1,77.65,203.13Z"/><path d="M292.53,203.13h29.79a0,0,0,0,1,0,0v40.06a8.84,8.84,0,0,1-8.84,8.84H301.37a8.84,8.84,0,0,1-8.84-8.84V203.13A0,0,0,0,1,292.53,203.13Z"/><path d="M137.86,80.84H170.7A13.76,13.76,0,0,1,184.46,94.6v46.6a0,0,0,0,1,0,0H124.1a0,0,0,0,1,0,0V94.6A13.76,13.76,0,0,1,137.86,80.84Z"/><path d="M234.1,80.84h32.84A13.76,13.76,0,0,1,280.7,94.6v46.6a0,0,0,0,1,0,0H220.34a0,0,0,0,1,0,0V94.6A13.76,13.76,0,0,1,234.1,80.84Z"/><path d="M124.28,147.93a134.4,134.4,0,0,1-1.57-16.29c-4.49.07,4.71-30.73,11.07-35,11.56-7.81,29.95-11.18,42.14,3.09,3.85,4.51,12.13,17.4,11.11,27.82-.29,2.92-4,4.11-8.19,4.18a108.63,108.63,0,0,0-.57,18.61Z" fill="#126cff"/><path d="M159.78,94.71l-3.41,20.67-2.62,9.08-2.63-9.1-2.9-20.7A17.88,17.88,0,0,1,159.78,94.71Z" fill="#231f20"/><polygon points="153.75 103.3 150.66 100.92 153.75 98.53 156.84 100.92 153.75 103.3" fill="#fff"/><polygon points="156.38 115.38 153.75 124.47 151.12 115.36 152.71 102 152.75 101.73 154.76 101.73 154.79 102.02 156.38 115.38" fill="#fff"/><path d="M167,122.89c-14.47-11.62-28.36-29.54-28.36-29.54a11,11,0,0,0-4.67,2.47c2.83,6.68,16,19.77,27.17,28.58A17.68,17.68,0,0,1,167,122.89Z"/><path d="M152.66,121.25a18.46,18.46,0,0,0-18.23,15.53h5.3a13.26,13.26,0,0,1,25.87,0h5.3A18.47,18.47,0,0,0,152.66,121.25Z" fill="#fff"/><path d="M145.16,124.38a18.31,18.31,0,0,1,3.44,3c.47.48,1,1.26.48,1.74s-1.07.16-1.57-.11l-3.77-2a6.66,6.66,0,0,1,3.36,3.14,1.11,1.11,0,0,1,.2.55.73.73,0,0,1-.71.62,2,2,0,0,1-1-.25c-1.67-.73-2.51-1.27-4.18-2,.87.53,1.3.51,2.17,1s2.41,2,2,2.62a1.23,1.23,0,0,1-1.41.34,30.22,30.22,0,0,1-3.62-1.1,4.22,4.22,0,0,1,2.52,1.79.77.77,0,0,1,.15.43c0,.46-.68.51-1.12.39-2.16-.61-4.08-2.08-6.32-2.28a2.46,2.46,0,0,1-1.57-.42c-1.6-1.55,1.43-5,2.68-6C139.57,123.83,142,122.44,145.16,124.38Z" fill="#fff"/><path d="M142.54,135.07A2.38,2.38,0,0,1,142,135a17.63,17.63,0,0,1-2.63-1.06,11,11,0,0,0-3.59-1.2h-.21a2.52,2.52,0,0,1-1.66-.55,2,2,0,0,1-.61-1.66c.12-1.89,2.26-4.29,3.33-5.09,2.64-2,5.3-3.6,8.81-1.48a18.86,18.86,0,0,1,3.54,3c.86.89,1,1.84.48,2.44-.33.34-1,.62-2.16,0h0l.26.41a1.68,1.68,0,0,1,.27.82,1.23,1.23,0,0,1-1.17,1.11,1.88,1.88,0,0,1-.72-.09,1.71,1.71,0,0,1,.22.54.9.9,0,0,1-.12.74,1.73,1.73,0,0,1-1.94.55l-.62-.16.06.09a1.25,1.25,0,0,1,.23.74.91.91,0,0,1-.39.68A1.43,1.43,0,0,1,142.54,135.07ZM142.13,124c-1.71,0-3.23,1-4.92,2.27-.94.72-2.84,2.9-2.93,4.36a1.08,1.08,0,0,0,.3.88,1.74,1.74,0,0,0,1,.27l.22,0a11.71,11.71,0,0,1,3.94,1.29,17.14,17.14,0,0,0,2.48,1,.9.9,0,0,0,.46,0l-.05-.08a3.73,3.73,0,0,0-1.5-1.31l-.77-.28a.52.52,0,0,1-.31-.62.51.51,0,0,1,.6-.34,5.19,5.19,0,0,1,.86.31c.9.31,1.83.57,2.75.79.45.11.71.12.88-.14a5.35,5.35,0,0,0-1.84-1.89l-.06,0-.74-.38-.22-.08a7.88,7.88,0,0,1-1.16-.56.5.5,0,0,1,.46-.89c.5.22.93.43,1.33.62a7.17,7.17,0,0,1,.88.44c.59.3,1.18.6,2,.94a1.83,1.83,0,0,0,.75.22.33.33,0,0,0,.25-.15,1,1,0,0,0-.13-.27,8,8,0,0,0-1.85-2.25l-1.31-.71a.5.5,0,0,1,.39-.92,5,5,0,0,1,1.47.79l2.38,1.28c.47.25.85.33,1,.2s-.12-.67-.48-1a17.6,17.6,0,0,0-3.34-2.89h0A5.25,5.25,0,0,0,142.13,124Z" fill="#231f20"/><path d="M161.4,123.71a17.66,17.66,0,0,0-3.44,3c-.47.48-1,1.26-.49,1.74s1.08.16,1.57-.11l3.77-2a6.6,6.6,0,0,0-3.35,3.14,1.11,1.11,0,0,0-.2.55.72.72,0,0,0,.71.62,2.08,2.08,0,0,0,1-.25c1.67-.73,2.51-1.27,4.17-2-.86.53-1.29.51-2.16,1s-2.41,2-2,2.62a1.22,1.22,0,0,0,1.41.34,30.06,30.06,0,0,0,3.61-1.1,4.2,4.2,0,0,0-2.51,1.79.77.77,0,0,0-.15.43c0,.46.68.51,1.12.39,2.16-.61,4.08-2.08,6.32-2.28a2.44,2.44,0,0,0,1.56-.42c1.6-1.55-1.43-5.06-2.68-6C167,123.15,164.61,121.77,161.4,123.71Z" fill="#fff"/><path d="M164,134.4a1.44,1.44,0,0,1-.82-.22.9.9,0,0,1-.38-.69,1.18,1.18,0,0,1,.23-.73l.06-.09-.62.15a1.7,1.7,0,0,1-1.94-.54.94.94,0,0,1-.13-.74,2.19,2.19,0,0,1,.22-.54,1.85,1.85,0,0,1-.71.09,1.23,1.23,0,0,1-1.17-1.11,1.59,1.59,0,0,1,.27-.82l.26-.41h0c-1.19.64-1.83.36-2.17,0-.57-.6-.38-1.56.49-2.44a18.21,18.21,0,0,1,3.54-3h0c3.51-2.12,6.17-.51,8.8,1.47,1.07.81,3.22,3.21,3.33,5.1a2.07,2.07,0,0,1-.6,1.66,2.53,2.53,0,0,1-1.66.55h-.21a11.08,11.08,0,0,0-3.6,1.2,17.84,17.84,0,0,1-2.63,1.06A2.29,2.29,0,0,1,164,134.4Zm1.36-2.42a3.87,3.87,0,0,0-1.49,1.32c-.06.1-.07.14-.08.14s.25,0,.49-.08a16.44,16.44,0,0,0,2.48-1,12,12,0,0,1,3.93-1.3h.23a1.69,1.69,0,0,0,1-.27,1,1,0,0,0,.3-.88c-.08-1.46-2-3.64-2.93-4.36-2.53-1.9-4.7-3.22-7.68-1.41h0a17.3,17.3,0,0,0-3.34,2.89c-.36.37-.65.87-.49,1s.51.05,1-.2l2.38-1.29a4.92,4.92,0,0,1,1.47-.78.5.5,0,0,1,.61.28.5.5,0,0,1-.22.64l-1.32.71a8.13,8.13,0,0,0-1.84,2.25.84.84,0,0,0-.13.27s.11.13.25.14a1.58,1.58,0,0,0,.75-.21c.78-.34,1.38-.64,2-.94a6,6,0,0,1,.88-.44c.39-.2.82-.4,1.32-.62a.51.51,0,0,1,.65.23.5.5,0,0,1-.19.66,7.15,7.15,0,0,1-1.15.55l-.22.09-.75.38-.06,0c-.83.51-1.82,1.63-1.81,2s.41.18.85.07c.93-.22,1.85-.49,2.76-.79a4.19,4.19,0,0,1,.86-.31.5.5,0,0,1,.29,1C165.9,131.8,165.64,131.9,165.38,132Z" fill="#231f20"/><path d="M132.26,124.17a.5.5,0,0,1-.47-.67s4-11.26,6.18-17.7a.5.5,0,0,1,.94.33c-1.88,5.45-5,14.35-5.92,17l8-.81a.5.5,0,0,1,.55.45.49.49,0,0,1-.45.54l-8.78.9Z" fill="#231f20"/><path d="M167.47,123.39a24.57,24.57,0,0,1-2.53-.07.5.5,0,0,1,.18-1c.47.09,3.68.09,8.14,0-.44-2.56-2.24-13.11-2.86-18a.51.51,0,0,1,.43-.56.5.5,0,0,1,.56.44c.71,5.47,2.93,18.34,3,18.47a.52.52,0,0,1-.11.4.48.48,0,0,1-.37.19C171.36,123.35,169.1,123.39,167.47,123.39Z" fill="#231f20"/><path d="M165.55,78.5s3.7-7.39,2.3-9.32-2.36-1.24-2.37-1.23c1.5-1.07-.28-3.3-1.24-4.05a8.93,8.93,0,0,0-2.5-1.27,19.67,19.67,0,0,0-6.85-1.37,10.57,10.57,0,0,0-6.54,2.17c-2.87,2.32-3.79,5.26-3.48,8.85.22,2.57,1,5.13,1.15,7.65,2.94.29,5.91.66,8.89.73C157.28,80.72,164.18,81.24,165.55,78.5Z" fill="#fff"/><path d="M158.06,81.25c-.88,0-1.71,0-2.41,0l-.75,0c-2.43-.06-4.88-.32-7.25-.56L146,80.44a.51.51,0,0,1-.46-.48,31.36,31.36,0,0,0-.58-3.93,35.14,35.14,0,0,1-.57-3.7c-.35-4,.82-7,3.67-9.3a11,11,0,0,1,6.86-2.28,20,20,0,0,1,7,1.4,9.67,9.67,0,0,1,2.64,1.34c.79.62,2,2.1,2,3.41a2.08,2.08,0,0,1-.07.5,3.77,3.77,0,0,1,1.77,1.48c1.6,2.2-2.09,9.51-2.26,9.85C164.92,80.9,161.16,81.25,158.06,81.25ZM146.5,79.46l1.26.13c2.34.25,4.77.5,7.16.56l.77,0c2.48.09,8.3.29,9.4-1.9h0c1.17-2.32,3.27-7.51,2.34-8.79s-1.45-1.22-1.66-1.1a.52.52,0,0,1-.6-.84h0a.76.76,0,0,0,.36-.66,4.21,4.21,0,0,0-1.62-2.57,8.33,8.33,0,0,0-2.35-1.18,18.74,18.74,0,0,0-6.67-1.34,10,10,0,0,0-6.22,2c-2.56,2.07-3.61,4.75-3.3,8.41.11,1.19.34,2.42.56,3.6A34,34,0,0,1,146.5,79.46Z" fill="#231f20"/><path d="M162.23,79.53c.75-3.18,6.15-3.58,5.6.19a5.6,5.6,0,0,1-1.68,3.46,3.32,3.32,0,0,1-3.64.57" fill="#fff"/><path d="M163.83,84.59a3.4,3.4,0,0,1-1.57-.38.52.52,0,0,1-.21-.7.52.52,0,0,1,.7-.21,2.8,2.8,0,0,0,3.06-.51,5.1,5.1,0,0,0,1.51-3.14c.23-1.55-.71-2-1.28-2.07a2.94,2.94,0,0,0-3.31,2.07.51.51,0,0,1-1-.24,3.94,3.94,0,0,1,4.5-2.84,2.6,2.6,0,0,1,2.11,3.23,6.15,6.15,0,0,1-1.85,3.77A4.12,4.12,0,0,1,163.83,84.59Z" fill="#231f20"/><path d="M148.93,78.56c-.28-3.26-5.56-4.44-5.57-.63a5.55,5.55,0,0,0,1.16,3.66,3.31,3.31,0,0,0,3.52,1.1" fill="#fff"/><path d="M147.13,83.36a4,4,0,0,1-3-1.44,6.16,6.16,0,0,1-1.29-4A2.61,2.61,0,0,1,145.41,75a4,4,0,0,1,4,3.47.52.52,0,0,1-.47.56.52.52,0,0,1-.56-.47,2.92,2.92,0,0,0-3-2.53c-.59,0-1.57.3-1.57,1.86a5.12,5.12,0,0,0,1,3.33,2.83,2.83,0,0,0,3,.95.51.51,0,0,1,.66.31.52.52,0,0,1-.31.66A3.26,3.26,0,0,1,147.13,83.36Z" fill="#231f20"/><path d="M148.22,94.66a6.14,6.14,0,0,0,5.43,3.56,6.82,6.82,0,0,0,6.15-2.71l0-2.27,0-5.25,0-4.91-9.61-.71-.62,4-.19,1.29Z" fill="#fff"/><path d="M154.25,98.75c-.21,0-.42,0-.64,0a6.61,6.61,0,0,1-5.87-3.89.58.58,0,0,1,0-.26l1.89-12.29a.51.51,0,0,1,.54-.43l9.62.7a.51.51,0,0,1,.48.51l.07,12.43a.51.51,0,0,1-.08.29A7.24,7.24,0,0,1,154.25,98.75Zm-5.5-4.16a5.65,5.65,0,0,0,4.93,3.11,6.3,6.3,0,0,0,5.6-2.36l-.07-11.78-8.67-.64Zm-.53.07h0Z" fill="#231f20"/><path d="M149.3,87.63a8.58,8.58,0,0,0,3,3c2,1.3,5,2.81,7.52,2.61l0-5.25a23.88,23.88,0,0,1-5.54-.37,15.72,15.72,0,0,1-4.72-1.28Z" fill="#231f20"/><path d="M159.32,93.76c-2.76,0-5.75-1.67-7.34-2.71a9,9,0,0,1-3.12-3.19.45.45,0,0,1-.05-.3l.19-1.29a.48.48,0,0,1,.26-.37.53.53,0,0,1,.46,0,15.59,15.59,0,0,0,4.57,1.23,22.84,22.84,0,0,0,5.43.36.5.5,0,0,1,.37.13.52.52,0,0,1,.16.37l0,5.25a.5.5,0,0,1-.46.5Zm-9.5-6.22a8.12,8.12,0,0,0,2.71,2.67c1.2.79,4.16,2.54,6.75,2.55l0-4.25a25.23,25.23,0,0,1-5.14-.4,19.3,19.3,0,0,1-4.23-1Z" fill="#231f20"/><path d="M154.19,88.82l.85.06A7.38,7.38,0,0,0,163,82.05l.86-11.66-8.64,1.48-7-2.63-.85,11.67A7.39,7.39,0,0,0,154.19,88.82Z" fill="#fff"/><path d="M155.6,89.42l-.59,0-.86-.07h0a7.91,7.91,0,0,1-7.31-8.46l.86-11.67a.49.49,0,0,1,.24-.39.5.5,0,0,1,.46,0l6.82,2.57,8.5-1.45a.54.54,0,0,1,.44.12.52.52,0,0,1,.16.42l-.85,11.67a7.91,7.91,0,0,1-7.87,7.33Zm-1.38-1.12.86.07A6.88,6.88,0,0,0,162.44,82l.81-11-8,1.37a.63.63,0,0,1-.27,0L148.68,70l-.81,11a6.86,6.86,0,0,0,6.35,7.35Z" fill="#231f20"/><path d="M155.66,83.17A10.62,10.62,0,0,1,153.8,83a.52.52,0,0,1-.41-.61A.51.51,0,0,1,154,82a10.59,10.59,0,0,0,1.86.15,15.78,15.78,0,0,0-.91-4.92.52.52,0,0,1,1-.3c.44,1.46,1.39,5,.73,5.9a.76.76,0,0,1-.61.34Z" fill="#231f20"/><ellipse cx="158.66" cy="75.83" rx="1.25" ry="0.51" transform="translate(71.42 228.52) rotate(-85.8)" fill="#231f20"/><ellipse cx="152.12" cy="75.04" rx="1.25" ry="0.51" transform="translate(66.15 221.26) rotate(-85.8)" fill="#231f20"/><path d="M155.22,85.63H155a7.62,7.62,0,0,1-5.28-2.95.51.51,0,0,1,.11-.72.52.52,0,0,1,.72.1A6.68,6.68,0,0,0,155,84.6c1.86.06,3.73-.95,5.58-3a.5.5,0,0,1,.72,0,.51.51,0,0,1,.05.73C159.39,84.49,157.32,85.63,155.22,85.63Z" fill="#231f20"/><path d="M332.25,154.63c-1.7-11.41-24-16.27-24-16.27s-7-32.48-11-46.42c-5.36-18.69-8.06-36.61-36.55-40.81s-98.76-2.92-118.52,0-20.72,0-31.09,18.78-18.78,68.45-18.78,68.45-15.46,8.75-19.83,17.73,3.39,48.58,6.55,58.78,6.31,13.84,15.55,13.84S297,231.14,314.28,226,334,166.05,332.25,154.63ZM295.34,125c-.34,3.65-1,6.4-5.37,7.77a25.56,25.56,0,0,1-6.67.93c-.64,0-1.32,0-2.05,0H115.38a2.85,2.85,0,0,1-.61-.07c-2-.36-5.88-2.51-7.33-8.19-1.62-6.32,10.39-47.48,14.11-56.72,3.94-9.79,34.36-13.48,71.05-13.19,34.54.27,78,2.26,84,6.88S295.82,119.66,295.34,125Z" fill="#126cff"/><path d="M151.56,199.81s-7.77-25.74-7.53-28.42,2.18-6.07,3.76-6.55,102.38-1.22,104.8.48,3.89,4.37,3.65,6.32-4.62,25.26-5.83,28.17S155.69,204.91,151.56,199.81Z"/><path d="M261.26,192.6s.64-18.61,16.67-24.77,38.86-6.15,41.29-2.26,3.08,17.32-12,23.31S270,194.32,261.26,192.6Z" fill="#fff"/><path d="M276.33,194.26a85.61,85.61,0,0,1-15.17-1.16.5.5,0,0,1-.4-.51c0-.19.84-19,17-25.22,15.82-6.07,39.17-6.43,41.89-2.07,1.41,2.25,2.05,7,.53,11.58-1.27,3.88-4.52,9.19-12.75,12.47C298.12,193.05,286.18,194.26,276.33,194.26Zm-14.54-2.06c8.78,1.6,30.43,2.12,45.26-3.78,7.88-3.14,11-8.18,12.17-11.85,1.59-4.84.62-9.08-.42-10.74-2.25-3.59-25-3.55-40.69,2.47C263.92,173.75,262,189.41,261.79,192.2Z" fill="#231f20"/><path d="M140.31,193.9s-3.4-24.12-19.27-27-35.3-6-39,0-1.94,16.52,8.26,20.73S132.37,195.68,140.31,193.9Z" fill="#fff"/><path d="M134.29,194.85c-12.48,0-35.85-3.35-44.2-6.8a16.29,16.29,0,0,1-9.63-10A13.85,13.85,0,0,1,81.6,166.6c3.85-6.2,22.42-3.37,39.53-.23,6.66,1.22,12.17,6.38,16,14.9a53.58,53.58,0,0,1,3.72,12.56.5.5,0,0,1-.38.56A30.45,30.45,0,0,1,134.29,194.85ZM93.64,163.91c-5.42,0-9.71.83-11.19,3.21a12.89,12.89,0,0,0-1,10.63,15.3,15.3,0,0,0,9.06,9.37c9.55,3.94,40.63,7.93,49.27,6.38-.58-3.34-4.66-23.55-18.79-26.15C113.53,166,102.19,163.91,93.64,163.91Z" fill="#231f20"/><rect x="153.04" y="213.9" width="94.67" height="24.77" rx="7.25" fill="#fff"/><path d="M240.46,239.17H160.29a7.76,7.76,0,0,1-7.75-7.75V221.15a7.76,7.76,0,0,1,7.75-7.75h80.17a7.75,7.75,0,0,1,7.75,7.75v10.27A7.76,7.76,0,0,1,240.46,239.17ZM160.29,214.4a6.75,6.75,0,0,0-6.75,6.75v10.27a6.76,6.76,0,0,0,6.75,6.75h80.17a6.76,6.76,0,0,0,6.75-6.75V221.15a6.75,6.75,0,0,0-6.75-6.75Z" fill="#231f20"/><path d="M88.42,218.27s.24-10.2,4.12-12.39,32.79-1,36,0,7.77,11.17,7.29,12.39-3.41,2.91-4.13,2.67S88.09,221.9,88.42,218.27Z" fill="#fff"/><path d="M131.78,221.46a.84.84,0,0,1-.29-.05c-.21,0-2.41,0-5,0-18.65.11-36.21-.1-38.33-2.4a1,1,0,0,1-.29-.78c0-.59.33-10.52,4.38-12.79s33.38-1,36.34,0c2.5.77,5.19,6.06,6,7.66.48,1,2,4.4,1.64,5.39A6.91,6.91,0,0,1,131.78,221.46ZM130,220.4a7.64,7.64,0,0,1,1.76.07c.51.07,3.09-1.35,3.51-2.39.26-1.11-4.06-10.83-7-11.72-3.14-1-31.82-2.14-35.55,0s-3.87,11.86-3.87,12v0c.6,1.55,13.26,2.26,37.61,2.12Zm-41.62-2.13h0Z" fill="#231f20"/><path d="M316.23,218.27s-.25-10.2-4.13-12.39-32.79-1-36,0-7.77,11.17-7.28,12.39,3.4,2.91,4.12,2.67S316.55,221.9,316.23,218.27Z" fill="#fff"/><path d="M272.83,221.47a7,7,0,0,1-4.43-3c-.39-1,1.16-4.38,1.64-5.39.77-1.6,3.46-6.89,6-7.66,3-.91,32.2-2.29,36.34,0s4.37,12.2,4.39,12.79a1,1,0,0,1-.3.78c-2.12,2.3-19.67,2.51-38.33,2.4-2.54,0-4.74,0-5,0A1.1,1.1,0,0,1,272.83,221.47Zm25.33-16.32c-9.27,0-20,.64-21.86,1.21-2.9.89-7.22,10.61-7,11.74.41,1,3,2.44,3.51,2.36a46.33,46.33,0,0,1,5.26,0c24.39.15,37.05-.57,37.62-2.13h0c0-.1-.28-9.94-3.88-12C310.32,205.46,304.6,205.15,298.16,205.15Z" fill="#231f20"/><rect x="154.61" y="173.16" width="90.51" height="2.03" rx="1.02" fill="#fff"/><rect x="154.61" y="180.84" width="90.51" height="2.03" rx="1.02" fill="#fff"/><rect x="154.61" y="188.52" width="90.51" height="2.03" rx="1.02" fill="#fff"/><path d="M77.65,157.65a.5.5,0,0,1-.5-.5.5.5,0,0,1,.5-.5c1.09,0,110.62,0,248.55-2.45a.53.53,0,0,1,.51.49.52.52,0,0,1-.5.51C188.28,157.62,78.74,157.65,77.65,157.65Z" fill="#231f20"/><path d="M188.12,35.5H185V34.05h8V35.5h-3.11v7.86h-1.81Z" fill="#fff"/><path d="M196.54,34.05h1.56l4.37,9.31H200.4l-.94-2.13h-4.4l-.92,2.13h-2Zm2.29,5.76L197.27,36l-1.59,3.78Z" fill="#fff"/><path d="M205.92,38.39l-3.15-4.34H205L207,37.23l2.06-3.18h2.08l-3.09,4.38,3.64,4.93h-2.28L207,39.71l-2.38,3.65h-2.18Z" fill="#fff"/><path d="M212.9,34.05h1.81v9.31H212.9Z" fill="#fff"/></g></svg>