<svg id="_520_data_analyzing_flatline" data-name="#520_data_analyzing_flatline" xmlns="http://www.w3.org/2000/svg" viewBox="0 0 400 300"><path d="M104.32,62.59s-7.89-1.06-8.82,7.57h13.89S108.62,61.94,104.32,62.59Z" fill="#231f20"/><path d="M109.39,70.66H95.5a.47.47,0,0,1-.37-.17.48.48,0,0,1-.13-.38,8.87,8.87,0,0,1,3.13-6.33,9,9,0,0,1,6.18-1.69,3.36,3.36,0,0,1,2.57.7c2.48,1.94,3,7.11,3,7.32a.52.52,0,0,1-.13.39A.48.48,0,0,1,109.39,70.66Zm-13.33-1h12.76c-.19-1.33-.84-4.74-2.55-6.08a2.36,2.36,0,0,0-1.88-.5.33.33,0,0,1-.14,0,8.24,8.24,0,0,0-5.52,1.49A7.66,7.66,0,0,0,96.06,69.66Z" fill="#231f20"/><path d="M109.39,75.6s-4.88-2.56-5.07-13h22A18.84,18.84,0,0,1,109.39,75.6Z" fill="#fff"/><path d="M109.39,76.1a.6.6,0,0,1-.24,0c-.21-.11-5.14-2.83-5.33-13.45a.51.51,0,0,1,.14-.36.49.49,0,0,1,.36-.15h22a.5.5,0,0,1,.48.63A19.49,19.49,0,0,1,109.43,76.1Zm-4.56-13c.29,8.69,4,11.54,4.68,12a18.45,18.45,0,0,0,16.08-12Z" fill="#231f20"/><path d="M124.59,48.76s-6-.94-8.26,7.51,2.25,20.08-6.94,19.33h39.37S143.17,47.45,124.59,48.76Z" fill="#231f20"/><path d="M110.21,76.14c-.28,0-.57,0-.86,0a.5.5,0,0,1,0-1h1.54a4,4,0,0,0,2.37-1c1.76-1.61,1.77-5.21,1.78-9a35.19,35.19,0,0,1,.77-9c2.21-8.3,8.06-8,8.75-7.88,18.79-1.27,24.6,27,24.65,27.25a.51.51,0,0,1-.1.41.53.53,0,0,1-.39.18H111C110.73,76.12,110.48,76.14,110.21,76.14Zm3.49-1h34.44c-.94-4-7.06-27-23.51-25.85h-.11c-.23,0-5.61-.73-7.71,7.15a35.25,35.25,0,0,0-.74,8.72c0,4.21,0,7.84-2.09,9.75A3.22,3.22,0,0,1,113.7,75.11Z" fill="#231f20"/><path d="M269.5,48.76H124.59c10.89,3,10.43,10.5,10.43,10.5v192H276.44v-192C275.12,51.36,269.5,48.76,269.5,48.76Z" fill="#fff"/><path d="M276.44,251.78H135a.5.5,0,0,1-.5-.5v-192c0-.32.27-7.17-10.06-10a.49.49,0,0,1-.36-.55.5.5,0,0,1,.49-.43H269.5a.54.54,0,0,1,.21.05c.24.11,5.88,2.8,7.22,10.87v192.1A.5.5,0,0,1,276.44,251.78Zm-140.92-1H275.94V59.26a13.73,13.73,0,0,0-6.56-10H127.57a13.34,13.34,0,0,1,6.75,5.63,8.9,8.9,0,0,1,1.2,4.4Z" fill="#231f20"/><rect x="160.63" y="120.87" width="23.58" height="19.43" fill="#fff"/><path d="M184.21,140.8H160.63a.5.5,0,0,1-.5-.5V120.87a.5.5,0,0,1,.5-.5h23.58a.5.5,0,0,1,.5.5V140.3A.5.5,0,0,1,184.21,140.8Zm-23.08-1h22.58V121.37H161.13Z" fill="#d1d3d4"/><rect x="199.15" y="104.36" width="23.58" height="35.94" fill="#fff"/><path d="M222.73,140.8H199.15a.5.5,0,0,1-.5-.5V104.36a.5.5,0,0,1,.5-.5h23.58a.5.5,0,0,1,.5.5V140.3A.5.5,0,0,1,222.73,140.8Zm-23.08-1h22.58V104.86H199.65Z" fill="#d1d3d4"/><rect x="237.67" y="90.12" width="23.58" height="50.18" fill="#126cff"/><line x1="210.41" y1="188.83" x2="255.27" y2="188.83" fill="#fff"/><path d="M255.27,189.33H210.41a.5.5,0,0,1-.5-.5.5.5,0,0,1,.5-.5h44.86a.5.5,0,0,1,.5.5A.5.5,0,0,1,255.27,189.33Z" fill="#d1d3d4"/><line x1="210.41" y1="199.68" x2="255.27" y2="199.68" fill="#fff"/><path d="M255.27,200.18H210.41a.5.5,0,0,1-.5-.5.5.5,0,0,1,.5-.5h44.86a.5.5,0,0,1,.5.5A.5.5,0,0,1,255.27,200.18Z" fill="#d1d3d4"/><line x1="210.41" y1="210.53" x2="243.69" y2="210.53" fill="#fff"/><path d="M243.69,211H210.41a.5.5,0,0,1,0-1h33.28a.5.5,0,0,1,0,1Z" fill="#d1d3d4"/><line x1="263.12" y1="158.19" x2="210.2" y2="158.19" fill="#fff"/><path d="M263.12,158.69H210.2a.5.5,0,0,1-.5-.5.5.5,0,0,1,.5-.5h52.92a.5.5,0,0,1,.5.5A.51.51,0,0,1,263.12,158.69Z" fill="#d1d3d4"/><line x1="253.23" y1="168.7" x2="210.2" y2="168.7" fill="#fff"/><path d="M253.23,169.2h-43a.5.5,0,0,1-.5-.5.5.5,0,0,1,.5-.5h43a.5.5,0,0,1,.5.5A.51.51,0,0,1,253.23,169.2Z" fill="#d1d3d4"/><path d="M280.6,219.57h31.63c-4.72-25.16-11.32-58.86-14.19-67-4.72-13.39-21.6-30.24-21.6-30.24l.22,40.5s-10.83-16.86-18.05-14.5,9.2,18.19,16.9,37.08C278.88,193.69,280.19,207.11,280.6,219.57Z" fill="#fff"/><path d="M312.23,220.07H280.6a.5.5,0,0,1-.5-.48c-.51-15.57-2.21-27-5.06-34-3.18-7.83-8-15.23-11.77-21.18-4.5-7-7.75-12-6.77-14.82a2.82,2.82,0,0,1,2-1.74c6.3-2.07,14.87,9.26,17.69,13.32l-.21-38.85a.5.5,0,0,1,.31-.46.48.48,0,0,1,.54.11c.17.17,17,17.08,21.72,30.42,2.85,8.09,9.3,40.94,14.21,67.08a.49.49,0,0,1-.49.59Zm-31.15-1h30.55c-4.89-26-11.25-58.37-14.06-66.34-4-11.39-17.13-25.53-20.62-29.16l.21,39.25a.52.52,0,0,1-.36.49.51.51,0,0,1-.56-.21c-.11-.17-10.71-16.51-17.47-14.29a1.89,1.89,0,0,0-1.33,1.13c-.82,2.3,2.65,7.69,6.67,13.93,3.85,6,8.64,13.44,11.86,21.35C278.83,192.24,280.55,203.63,281.08,219.07Z" fill="#231f20"/><path d="M156.94,162.9a28.73,28.73,0,0,0-9.66,19.57h12.44a16,16,0,0,1,3.39-8.15,16.29,16.29,0,0,1,2.63-2.62,15.93,15.93,0,0,1,8.15-3.39V155.87A28.37,28.37,0,0,0,156.94,162.9Z" fill="#d1d3d4"/><path d="M204.21,182.47a28.35,28.35,0,0,0-7-16.94l-8.79,8.8a16,16,0,0,1,3.38,8.14,16.57,16.57,0,0,1,.11,1.86,16.16,16.16,0,0,1-.11,1.86,15.93,15.93,0,0,1-3.39,8.15,15.16,15.16,0,0,1-2.62,2.63,16,16,0,0,1-8.15,3.39,17.35,17.35,0,0,1-3.72,0,16.17,16.17,0,0,1-14.17-14.17H147.28a28.6,28.6,0,0,0,26.61,26.61q.92.06,1.86.06t1.86-.06a28.36,28.36,0,0,0,16.94-7,26,26,0,0,0,2.63-2.62,28.37,28.37,0,0,0,7-16.95c0-.61.06-1.23.06-1.86S204.26,183.09,204.21,182.47Z" fill="#126cff"/><path d="M194.56,162.9a28.37,28.37,0,0,0-16.95-7v12.44a15.93,15.93,0,0,1,8.15,3.39Z" fill="#d1d3d4"/><path d="M283.67,174.65a.52.52,0,0,1-.43-.24c-1.66-2.78-6.95-11.23-7-11.32a.5.5,0,0,1,.85-.53c.05.09,5.35,8.54,7,11.33a.5.5,0,0,1-.17.69A.48.48,0,0,1,283.67,174.65Z" fill="#231f20"/><path d="M153.31,119.41h.47a3.84,3.84,0,0,1,3.84,3.84v30.48a0,0,0,0,1,0,0h-8.16a0,0,0,0,1,0,0V123.26a3.84,3.84,0,0,1,3.84-3.84Z" transform="translate(180.74 340.27) rotate(-139.26)" fill="#fff"/><path d="M145,151.17a4.3,4.3,0,0,1-2.83-1.06l-.36-.31h0a4.35,4.35,0,0,1-.45-6.12l19.89-23.1a.51.51,0,0,1,.71,0l6.18,5.33a.49.49,0,0,1,.17.34.48.48,0,0,1-.12.36l-19.89,23.1a4.28,4.28,0,0,1-3,1.49Zm-2.53-2.12.35.3a3.33,3.33,0,0,0,4.72-.35l19.57-22.71-5.43-4.67-19.56,22.71a3.33,3.33,0,0,0,.35,4.72Z" fill="#231f20"/><rect x="166.22" y="99.31" width="13.18" height="29.82" transform="translate(229.18 313.55) rotate(-139.26)" fill="#fff"/><path d="M168.07,130.32a.55.55,0,0,1-.33-.12l-10-8.6a.51.51,0,0,1,0-.71L177.17,98.3a.51.51,0,0,1,.34-.17.47.47,0,0,1,.36.12l10,8.6a.5.5,0,0,1,0,.7l-19.46,22.59a.52.52,0,0,1-.34.18Zm-9.28-9.15,9.23,7.94,18.8-21.83-9.22-8Z" fill="#231f20"/><rect x="126.08" y="134.89" width="13.18" height="51.85" rx="4.65" transform="translate(128.23 369.24) rotate(-139.26)" fill="#231f20"/><path d="M120.25,183.34a5.16,5.16,0,0,1-3.36-1.25L114,179.56a5.16,5.16,0,0,1-.54-7.26l27.77-32.23a5.16,5.16,0,0,1,7.26-.54l2.93,2.53a5.14,5.14,0,0,1,.54,7.26l-27.76,32.23a5.17,5.17,0,0,1-3.52,1.78Zm24.85-44.06h-.32a4.13,4.13,0,0,0-2.84,1.43L114.17,173a4.16,4.16,0,0,0-1,3,4.11,4.11,0,0,0,1.43,2.84h0l2.93,2.53a4.16,4.16,0,0,0,3,1,4.11,4.11,0,0,0,2.84-1.43l27.77-32.23a4.15,4.15,0,0,0-.44-5.86l-2.93-2.53A4.14,4.14,0,0,0,145.1,139.28Z" fill="#231f20"/><circle cx="187.51" cy="97.16" r="34.98" fill="#fff"/><path d="M187.45,132.65A35.49,35.49,0,0,1,160.62,74h0a35.49,35.49,0,1,1,29.52,58.54C189.24,132.61,188.34,132.65,187.45,132.65Zm.11-70q-1.31,0-2.61.09a34.31,34.31,0,0,0-23.57,11.88h0a34.48,34.48,0,1,0,26.18-12ZM161,74.33h0Z" fill="#231f20"/><circle cx="187.51" cy="97.16" r="28.41" fill="#fff"/><path d="M187.49,126.06A28.89,28.89,0,0,1,165.6,78.29l.38.32-.38-.32a28.91,28.91,0,1,1,21.89,47.77ZM166.36,78.94A27.91,27.91,0,1,0,205.73,76a27.95,27.95,0,0,0-39.37,2.93Z" fill="#231f20"/><path d="M118.77,235.11c1.62-3.59,8-44.25,9.93-47.65,1.37-2.35,2.85-5.4,4.8-7.32s4.92-3.24,7.12-5.24c8.52-7.71,17.17-16.39,19.72-27.59.42-1.81.09-4.42-1.76-4.52a3.24,3.24,0,0,0-1.9.72c-4.58,3-8,8-12.44,10.73,1.18-.78,1.52-10.29,2.26-12.15,1.45-3.65,3.74-7,5.45-10.65.69-1.45,1.38-3.11.79-4.6a4,4,0,0,0-3.62-2.2,11.4,11.4,0,0,0-4.34,1q-7.84,3-15.54,6.37a19.13,19.13,0,0,0-4.73,2.66,20,20,0,0,0-3.81,4.85c-3.9,6.2-15.09,27.41-16.76,32.24-.59,1.72-18.1,52.1-19,52C85.05,223.73,118.77,235.11,118.77,235.11Z" fill="#fff"/><path d="M118.77,235.61a.45.45,0,0,1-.16,0c-11.5-3.88-33.38-11.26-33.82-11.39a.48.48,0,0,1-.38-.58.5.5,0,0,1,.26-.34c1.63-2.45,16.57-45.22,18.8-51.67,1.64-4.77,12.72-25.85,16.81-32.35a20.29,20.29,0,0,1,3.91-5,20.05,20.05,0,0,1,4.85-2.74c5.1-2.25,10.34-4.4,15.57-6.38a12,12,0,0,1,4.53-1,4.5,4.5,0,0,1,4.06,2.51c.67,1.66-.06,3.45-.8,5s-1.55,3-2.35,4.47a54.52,54.52,0,0,0-3.09,6.16,31.73,31.73,0,0,0-.75,4.87c-.31,2.62-.55,4.49-.84,5.72a47.26,47.26,0,0,0,4.82-4.38,40.84,40.84,0,0,1,6.21-5.4,3.68,3.68,0,0,1,2.2-.8,2.17,2.17,0,0,1,1.66.9,5.52,5.52,0,0,1,.57,4.23c-2.61,11.46-11.63,20.39-19.87,27.85a26.62,26.62,0,0,1-3.5,2.54,22.26,22.26,0,0,0-3.61,2.68,26.8,26.8,0,0,0-3.85,5.69c-.3.53-.59,1-.87,1.53-1,1.77-3.44,14.9-5.57,26.47-1.92,10.43-3.57,19.44-4.33,21.13A.51.51,0,0,1,118.77,235.61Zm-33.1-12.19,32.8,11.06c.8-2.46,2.48-11.61,4.11-20.48,2.24-12.22,4.56-24.87,5.69-26.79.28-.48.56-1,.86-1.52a26.42,26.42,0,0,1,4-5.91,22.53,22.53,0,0,1,3.77-2.81,27,27,0,0,0,3.37-2.44c8.13-7.36,17-16.16,19.57-27.33a4.61,4.61,0,0,0-.4-3.41,1.13,1.13,0,0,0-.91-.5,2.89,2.89,0,0,0-1.6.64,40.75,40.75,0,0,0-6.06,5.27,36.6,36.6,0,0,1-6.39,5.47.5.5,0,0,1-.68-.16.5.5,0,0,1,.14-.68c.52-.45,1-4.42,1.25-6.79a30.26,30.26,0,0,1,.82-5.13,54.16,54.16,0,0,1,3.15-6.28c.79-1.43,1.61-2.91,2.32-4.41s1.29-2.91.77-4.19a3.49,3.49,0,0,0-3.17-1.89,10.68,10.68,0,0,0-4.14,1c-5.21,2-10.43,4.11-15.52,6.35a19.62,19.62,0,0,0-4.61,2.59,19.72,19.72,0,0,0-3.7,4.74c-4.07,6.46-15.09,27.41-16.71,32.13-.49,1.4-5,14.3-9.39,26.68C88.79,216.07,86.61,221.66,85.67,223.42Z" fill="#231f20"/><path d="M169.13,97l-.83,2.49h-1.05l2.69-7.92h1.23l2.7,7.92h-1.09L171.93,97Zm2.59-.8L171,93.91c-.18-.52-.3-1-.41-1.44h0c-.12.47-.24,1-.4,1.43l-.77,2.29Z"/><path d="M175,95.33c0-.58,0-1.07-.05-1.54h.92l.06.94h0a2.09,2.09,0,0,1,1.88-1.07c.79,0,2,.47,2,2.43v3.39h-1V96.2c0-.91-.34-1.68-1.32-1.68a1.45,1.45,0,0,0-1.38,1.06,1.42,1.42,0,0,0-.08.48v3.42h-1Z"/><path d="M184.64,99.48l-.08-.72h0a2.12,2.12,0,0,1-1.74.85A1.62,1.62,0,0,1,181.05,98c0-1.38,1.22-2.13,3.42-2.12v-.11a1.17,1.17,0,0,0-1.29-1.32,2.85,2.85,0,0,0-1.49.42l-.23-.68a3.49,3.49,0,0,1,1.87-.51c1.74,0,2.16,1.19,2.16,2.33v2.13a8.09,8.09,0,0,0,.09,1.36Zm-.15-2.9c-1.13,0-2.41.18-2.41,1.28a.92.92,0,0,0,1,1,1.41,1.41,0,0,0,1.37-.95,1,1,0,0,0,.06-.33Z"/><path d="M187.16,91.14h1v8.34h-1Z"/><path d="M190.31,93.79l1.25,3.36c.13.38.27.83.36,1.17h0c.1-.34.22-.78.36-1.19l1.13-3.34h1.09L193,97.85c-.74,2-1.24,3-1.95,3.56a2.77,2.77,0,0,1-1.27.67l-.26-.87a2.74,2.74,0,0,0,.91-.51,3.17,3.17,0,0,0,.87-1.15.94.94,0,0,0,.08-.24.85.85,0,0,0-.07-.28l-2.1-5.24Z"/><path d="M194.83,98.88l2.57-3.35.74-.88v0h-3.08v-.84h4.34v.65l-2.54,3.3c-.24.32-.47.6-.73.9v0h3.33v.82h-4.62Z"/><path d="M201,96.83a1.82,1.82,0,0,0,1.95,2,3.86,3.86,0,0,0,1.58-.29l.17.74a4.64,4.64,0,0,1-1.89.35,2.64,2.64,0,0,1-2.8-2.87c0-1.71,1-3.07,2.67-3.07A2.41,2.41,0,0,1,205,96.34a4.68,4.68,0,0,1,0,.49Zm3-.74a1.47,1.47,0,0,0-1.43-1.68A1.72,1.72,0,0,0,201,96.09Z"/><path d="M205.93,98.87a.7.7,0,1,1,.69.74A.69.69,0,0,1,205.93,98.87Z"/><path d="M208.36,98.87a.7.7,0,0,1,.71-.74.74.74,0,1,1-.71.74Z"/><polygon points="122.94 237.59 127.97 197.96 94.03 189.13 79.39 237.59 122.94 237.59" fill="#231f20"/><path d="M122.94,238.09H79.39a.48.48,0,0,1-.4-.2.53.53,0,0,1-.08-.44L93.56,189a.49.49,0,0,1,.6-.34l33.93,8.83a.49.49,0,0,1,.37.54l-5,39.64A.49.49,0,0,1,122.94,238.09Zm-42.88-1H122.5l4.92-38.77-33-8.6Z" fill="#231f20"/><path d="M320.61,239.47l-9.68-44-32.61,6.31s1.86,25.61,2.83,37.68Z" fill="#231f20"/><path d="M320.61,240H281.15a.5.5,0,0,1-.5-.46c-1-11.94-2.81-37.43-2.82-37.69a.48.48,0,0,1,.4-.52l32.61-6.3a.49.49,0,0,1,.58.38l9.68,44a.52.52,0,0,1-.1.42A.49.49,0,0,1,320.61,240Zm-39-1H320l-9.44-42.9-31.7,6.12C279.1,205.59,280.71,227.75,281.61,239Z" fill="#231f20"/><path d="M265.37,140.8H154.62a.5.5,0,0,1,0-1H265.37a.5.5,0,0,1,0,1Z" fill="#231f20"/><path d="M261.43,77.11H232.15a.5.5,0,0,1-.5-.5.5.5,0,0,1,.5-.5h29.28a.5.5,0,0,1,.5.5A.5.5,0,0,1,261.43,77.11Z" fill="#d1d3d4"/><path d="M261.43,69.79H228.77a.5.5,0,0,1-.5-.5.5.5,0,0,1,.5-.5h32.66a.5.5,0,0,1,.5.5A.5.5,0,0,1,261.43,69.79Z" fill="#d1d3d4"/><path d="M149.86,221.92c3.53,0,3.53,4,7.07,4s3.54-4,7.08-4,3.54,4,7.08,4,3.53-4,7.07-4,3.54,4,7.08,4,3.54-4,7.08-4,3.54,4,7.08,4,3.54-4,7.07-4,3.54,4,7.08,4,3.54-4,7.08-4,3.54,4,7.08,4,3.54-4,7.08-4,3.53,4,7.07,4,3.54-4,7.08-4,3.55,4,7.09,4,3.54-4,7.09-4" fill="#fff"/><path d="M256,226.42a4.94,4.94,0,0,1-3.92-2.17c-.87-1-1.62-1.83-3.17-1.83s-2.29.85-3.16,1.83a4.62,4.62,0,0,1-7.83,0c-.87-1-1.62-1.83-3.16-1.83s-2.3.85-3.17,1.83a4.62,4.62,0,0,1-7.83,0c-.87-1-1.62-1.83-3.16-1.83s-2.3.85-3.16,1.83a4.62,4.62,0,0,1-7.83,0c-.87-1-1.62-1.83-3.17-1.83s-2.29.85-3.16,1.83a4.62,4.62,0,0,1-7.83,0c-.87-1-1.62-1.83-3.16-1.83s-2.3.85-3.17,1.83a4.61,4.61,0,0,1-7.82,0c-.87-1-1.62-1.83-3.17-1.83s-2.29.85-3.16,1.83a4.62,4.62,0,0,1-7.83,0c-.87-1-1.62-1.83-3.16-1.83s-2.3.85-3.17,1.83a4.61,4.61,0,0,1-7.82,0c-.87-1-1.62-1.83-3.17-1.83a.5.5,0,0,1-.5-.5.51.51,0,0,1,.5-.5,4.94,4.94,0,0,1,3.92,2.17c.87,1,1.62,1.83,3.16,1.83s2.29-.85,3.17-1.83a4.61,4.61,0,0,1,7.82,0c.87,1,1.62,1.83,3.17,1.83s2.29-.85,3.16-1.83a4.62,4.62,0,0,1,7.83,0c.87,1,1.62,1.83,3.16,1.83s2.3-.85,3.17-1.83a4.61,4.61,0,0,1,7.82,0c.87,1,1.62,1.83,3.17,1.83s2.29-.85,3.16-1.83a4.62,4.62,0,0,1,7.83,0c.87,1,1.62,1.83,3.16,1.83s2.3-.85,3.17-1.83a4.61,4.61,0,0,1,7.82,0c.87,1,1.62,1.83,3.17,1.83s2.29-.85,3.16-1.83a4.62,4.62,0,0,1,7.83,0c.87,1,1.62,1.83,3.16,1.83s2.3-.85,3.17-1.83a4.62,4.62,0,0,1,7.83,0c.87,1,1.62,1.83,3.17,1.83s2.3-.85,3.17-1.83a4.94,4.94,0,0,1,3.92-2.17.51.51,0,0,1,.5.5.5.5,0,0,1-.5.5c-1.55,0-2.3.85-3.17,1.83A4.94,4.94,0,0,1,256,226.42Z" fill="#d1d3d4"/><path d="M149.86,233.11c3.53,0,3.53,4,7.07,4s3.54-4,7.08-4,3.54,4,7.08,4,3.53-4,7.07-4,3.54,4,7.08,4,3.54-4,7.08-4,3.54,4,7.08,4,3.54-4,7.07-4,3.54,4,7.08,4,3.54-4,7.08-4,3.54,4,7.08,4,3.54-4,7.08-4,3.53,4,7.07,4,3.54-4,7.08-4,3.55,4,7.09,4,3.54-4,7.09-4" fill="#fff"/><path d="M256,237.61a4.94,4.94,0,0,1-3.92-2.17c-.87-1-1.62-1.83-3.17-1.83s-2.29.85-3.16,1.83a4.62,4.62,0,0,1-7.83,0c-.87-1-1.62-1.83-3.16-1.83s-2.3.85-3.17,1.83a4.62,4.62,0,0,1-7.83,0c-.87-1-1.62-1.83-3.16-1.83s-2.3.85-3.16,1.83a4.62,4.62,0,0,1-7.83,0c-.87-1-1.62-1.83-3.17-1.83s-2.29.85-3.16,1.83a4.62,4.62,0,0,1-7.83,0c-.87-1-1.62-1.83-3.16-1.83s-2.3.85-3.17,1.83a4.61,4.61,0,0,1-7.82,0c-.87-1-1.62-1.83-3.17-1.83s-2.29.85-3.16,1.83a4.62,4.62,0,0,1-7.83,0c-.87-1-1.62-1.83-3.16-1.83s-2.3.85-3.17,1.83a4.61,4.61,0,0,1-7.82,0c-.87-1-1.62-1.83-3.17-1.83a.51.51,0,0,1-.5-.5.5.5,0,0,1,.5-.5,4.94,4.94,0,0,1,3.92,2.17c.87,1,1.62,1.83,3.16,1.83s2.29-.85,3.17-1.83a4.61,4.61,0,0,1,7.82,0c.87,1,1.62,1.83,3.17,1.83s2.29-.85,3.16-1.83a4.62,4.62,0,0,1,7.83,0c.87,1,1.62,1.83,3.16,1.83s2.3-.85,3.17-1.83a4.61,4.61,0,0,1,7.82,0c.87,1,1.62,1.83,3.17,1.83s2.29-.85,3.16-1.83a4.62,4.62,0,0,1,7.83,0c.87,1,1.62,1.83,3.16,1.83s2.3-.85,3.17-1.83a4.61,4.61,0,0,1,7.82,0c.87,1,1.62,1.83,3.17,1.83s2.29-.85,3.16-1.83a4.62,4.62,0,0,1,7.83,0c.87,1,1.62,1.83,3.16,1.83s2.3-.85,3.17-1.83a4.62,4.62,0,0,1,7.83,0c.87,1,1.62,1.83,3.17,1.83s2.3-.85,3.17-1.83a4.94,4.94,0,0,1,3.92-2.17.5.5,0,0,1,.5.5.51.51,0,0,1-.5.5c-1.55,0-2.3.85-3.17,1.83A4.94,4.94,0,0,1,256,237.61Z" fill="#d1d3d4"/></svg>