<svg id="Layer_1" data-name="Layer 1" xmlns="http://www.w3.org/2000/svg" xmlns:xlink="http://www.w3.org/1999/xlink" viewBox="0 0 290.88 293.42"><defs><linearGradient id="linear-gradient" x1="237.73" y1="199.86" x2="293.97" y2="190.98" gradientUnits="userSpaceOnUse"><stop offset="0.01"/><stop offset="0.13" stop-opacity="0.69"/><stop offset="1" stop-opacity="0"/></linearGradient><linearGradient id="linear-gradient-2" x1="161.3" y1="-19.84" x2="148.93" y2="275.13" xlink:href="#linear-gradient"/><linearGradient id="linear-gradient-3" x1="220.54" y1="215.34" x2="140.93" y2="181.08" gradientUnits="userSpaceOnUse"><stop offset="0.01" stop-color="#fff"/><stop offset="0.13" stop-color="#fff" stop-opacity="0.69"/><stop offset="1" stop-color="#fff" stop-opacity="0"/></linearGradient><linearGradient id="linear-gradient-4" x1="121.53" y1="195.13" x2="196.81" y2="250.96" xlink:href="#linear-gradient-3"/><linearGradient id="linear-gradient-5" x1="180.36" y1="177.19" x2="421.42" y2="324.36" xlink:href="#linear-gradient-3"/><linearGradient id="linear-gradient-6" x1="185.49" y1="185.35" x2="163.61" y2="182.01" xlink:href="#linear-gradient"/><linearGradient id="linear-gradient-7" x1="161.76" y1="216.93" x2="249.09" y2="248.02" xlink:href="#linear-gradient-3"/><linearGradient id="linear-gradient-8" x1="328.65" y1="266.25" x2="155.47" y2="193.93" xlink:href="#linear-gradient"/><linearGradient id="linear-gradient-9" x1="23.73" y1="259.03" x2="56.47" y2="225.08" gradientTransform="matrix(-1, 0, 0, 1, 278.79, 0)" xlink:href="#linear-gradient"/><linearGradient id="linear-gradient-10" x1="94.41" y1="202.82" x2="38.22" y2="224.25" gradientTransform="matrix(-1, 0, 0, 1, 278.79, 0)" xlink:href="#linear-gradient-3"/><linearGradient id="linear-gradient-11" x1="190.38" y1="165.08" x2="198.03" y2="165.08" xlink:href="#linear-gradient"/><linearGradient id="linear-gradient-12" x1="139.35" y1="129.23" x2="140.73" y2="152.12" xlink:href="#linear-gradient"/><linearGradient id="linear-gradient-13" x1="162.46" y1="127.74" x2="163.84" y2="150.62" xlink:href="#linear-gradient"/><linearGradient id="linear-gradient-14" x1="180.79" y1="148.02" x2="170.32" y2="105.83" xlink:href="#linear-gradient"/><linearGradient id="linear-gradient-15" x1="202.74" y1="142.57" x2="192.27" y2="100.38" xlink:href="#linear-gradient"/><linearGradient id="linear-gradient-16" x1="161.94" y1="233.39" x2="171.67" y2="398.74" xlink:href="#linear-gradient-3"/><linearGradient id="linear-gradient-17" x1="188.03" y1="207.95" x2="187.87" y2="180.2" xlink:href="#linear-gradient"/><linearGradient id="linear-gradient-18" x1="202.32" y1="189.23" x2="184.4" y2="184.07" xlink:href="#linear-gradient"/></defs><title>4</title><path d="M90.19,65.23C85,82.64,82.59,101.17,73.68,117c-6.93,12.31-17.42,22.29-24.74,34.38-13.44,22.19-15,50.47-7,75.15s24.9,45.87,45.3,61.91c12,9.47,25.54,17.37,40.32,21.4,37.1,10.11,75.85-5.15,114.16-8.48,17.87-1.55,36.93-.76,52.3-10,23.11-13.89,28.79-44.29,32.19-71,1.49-11.72,3-23.77.06-35.22-5.83-23-27.75-38.49-36.59-60.48-7.26-18-5.09-38.91-12.95-56.7-7.93-18-25.29-30.39-43.87-36.72C208.67,23,180,21.43,154.47,20,120.24,18.1,100.07,32,90.19,65.23Z" transform="translate(-37.08 -19.84)" fill="#1aba0c" opacity="0.18" style="isolation:isolate"/><path d="M86.34,161.81c9.8-9.79,24.36-14.27,32.67-25.35,11.65-15.55,7.26-39,18.82-54.59,7.75-10.48,21.36-15.22,34.39-15.75a70.87,70.87,0,0,1,72.66,83.06c-1.3,7.45-3.64,15.76.54,22.06,4.68,7,14.65,7.41,22.34,10.91,10.57,4.82,17,16.22,18.69,27.72s-.63,23.19-3.46,34.46c-.49,2-1.08,4.1-2.59,5.48-2.31,2.09-5.85,1.77-8.93,1.35a438.58,438.58,0,0,0-125.38,1.18c-23.8,3.67-52.25,13.06-62.83-14.18C73.84,213.9,65.26,182.88,86.34,161.81Z" transform="translate(-37.08 -19.84)" fill="#1aba0c" opacity="0.18" style="isolation:isolate"/><path d="M275.88,194.07c2-8,2.25-16.39,4.7-24.26s7.78-15.58,15.75-17.65c-2.85,9-1.6,18.77-1,28.23s.39,19.6-4.86,27.49c-9.24,13.89-29.51,14.71-38.67,28.21C262.37,224.56,272.14,209.36,275.88,194.07Z" transform="translate(-37.08 -19.84)" fill="#1aba0c"/><path d="M275.88,194.07c2-8,2.25-16.39,4.7-24.26s7.78-15.58,15.75-17.65c-2.85,9-1.6,18.77-1,28.23s.39,19.6-4.86,27.49c-9.24,13.89-29.51,14.71-38.67,28.21C262.37,224.56,272.14,209.36,275.88,194.07Z" transform="translate(-37.08 -19.84)" fill="url(#linear-gradient)"/><ellipse cx="150.61" cy="235.16" rx="115.25" ry="21.43" fill="url(#linear-gradient-2)"/><path d="M184.89,206c3.73,4.22,7.81,8.26,12.78,10.88s11,3.7,16.3,1.81a10.92,10.92,0,0,1,2.88-.84,11.41,11.41,0,0,1,3.83.8,4.52,4.52,0,0,0,3.8-.26c1.07-.76,1.21-2.73,0-3.23a3.31,3.31,0,0,0,3.08-3.29,3.8,3.8,0,0,0-3-3.49,3.61,3.61,0,0,0-2.79-4,6.24,6.24,0,0,0-5.08,1.36,5.83,5.83,0,0,1-1.27.84,4.41,4.41,0,0,1-1.88.18,47,47,0,0,1-10.6-1.31,15.89,15.89,0,0,1-8.81-5.7c-1.68-2.35-2.74-5.52-5.46-6.5a7.17,7.17,0,0,0-2.53-.33c-2,0-4.08.4-5.43,1.82C177.72,197.87,182.84,203.71,184.89,206Z" transform="translate(-37.08 -19.84)" fill="url(#linear-gradient-3)"/><path d="M137.82,171.57A21,21,0,0,0,128.15,183a57.61,57.61,0,0,1-2.56-9.47,42.66,42.66,0,0,0-4.07,14.33A12.62,12.62,0,0,0,118.9,183c-3.65,6.95-7.36,14.06-8.63,21.81s.3,16.41,6,21.87c2.53,2.44,6.26,4.17,9.55,2.93,3-1.12,4.66-4.25,5.94-7.18,3.07-7,7.11-15.48,6.83-23.26-.15-4.37-.78-8.73-.92-13.12C137.58,184.35,136.51,172.29,137.82,171.57Z" transform="translate(-37.08 -19.84)" fill="#1aba0c"/><path d="M137.82,171.57A21,21,0,0,0,128.15,183a57.61,57.61,0,0,1-2.56-9.47,42.66,42.66,0,0,0-4.07,14.33A12.62,12.62,0,0,0,118.9,183c-3.65,6.95-7.36,14.06-8.63,21.81s.3,16.41,6,21.87c2.53,2.44,6.26,4.17,9.55,2.93,3-1.12,4.66-4.25,5.94-7.18,3.07-7,7.11-15.48,6.83-23.26-.15-4.37-.78-8.73-.92-13.12C137.58,184.35,136.51,172.29,137.82,171.57Z" transform="translate(-37.08 -19.84)" fill="url(#linear-gradient-4)"/><path d="M153.26,251.57c-5.83.18-12.09.24-16.93-3a26.26,26.26,0,0,1-6.09-6.39c-3.77-5-7.43-10.44-8.33-16.64a20.78,20.78,0,0,1,6.6-18.14c5.88-5.27,14.18-6.67,21.23-10.24a37.58,37.58,0,0,0,18.82-22.54c-3.45-.49-5.74-4.11-5.93-7.59s1.2-6.82,2.57-10l6-13.94L166,123.91c-1.62-6.07-3.25-12.22-3.22-18.5s1.93-12.8,6.44-17.16c1.26-1.21,2.89-2.29,4.62-2,2.88.41,4,3.91,4.47,6.78a160.11,160.11,0,0,1,2.31,17.56c.61,10.5-.82,21.21,1.65,31.43,3.19,0,5.43-3.1,6.47-6.11s.79-6.3.53-9.48l-3-36.55a4.86,4.86,0,0,1,.48-3.25c1.1-1.56,3.5-1.29,5.22-.48,4.36,2.06,7.32,6.39,8.77,11s1.58,9.49,1.59,14.32c0,8.7-.32,17.61-3.5,25.7a16.3,16.3,0,0,0-1.2,3.74c-.35,2.71,1,5.34,2.31,7.72,2.94,5.16,6.33,10.29,7.3,16.15s-1.31,12.81-6.84,15c-4.3,7-2.89,15.55-1.46,23.67l2.73,15.5c.71,4,1.34,8.38-.72,11.86-.34.58-1.37,1-1.49.35-3.53,1.7-4.91,5-6.51,8.54a39.2,39.2,0,0,1-1.83,4.2c-2.32,4-7.14,5.6-11.6,6.69a133.16,133.16,0,0,1-14.15,2.69C161.1,253.81,156.26,254.68,153.26,251.57Z" transform="translate(-37.08 -19.84)" fill="#1aba0c"/><path d="M153.26,251.57c-5.83.18-12.09.24-16.93-3a26.26,26.26,0,0,1-6.09-6.39c-3.77-5-7.43-10.44-8.33-16.64a20.78,20.78,0,0,1,6.6-18.14c5.88-5.27,14.18-6.67,21.23-10.24a37.58,37.58,0,0,0,18.82-22.54c-3.45-.49-5.74-4.11-5.93-7.59s1.2-6.82,2.57-10l6-13.94L166,123.91c-1.62-6.07-3.25-12.22-3.22-18.5s1.93-12.8,6.44-17.16c1.26-1.21,2.89-2.29,4.62-2,2.88.41,4,3.91,4.47,6.78a160.11,160.11,0,0,1,2.31,17.56c.61,10.5-.82,21.21,1.65,31.43,3.19,0,5.43-3.1,6.47-6.11s.79-6.3.53-9.48l-3-36.55a4.86,4.86,0,0,1,.48-3.25c1.1-1.56,3.5-1.29,5.22-.48,4.36,2.06,7.32,6.39,8.77,11s1.58,9.49,1.59,14.32c0,8.7-.32,17.61-3.5,25.7a16.3,16.3,0,0,0-1.2,3.74c-.35,2.71,1,5.34,2.31,7.72,2.94,5.16,6.33,10.29,7.3,16.15s-1.31,12.81-6.84,15c-4.3,7-2.89,15.55-1.46,23.67l2.73,15.5c.71,4,1.34,8.38-.72,11.86-.34.58-1.37,1-1.49.35-3.53,1.7-4.91,5-6.51,8.54a39.2,39.2,0,0,1-1.83,4.2c-2.32,4-7.14,5.6-11.6,6.69a133.16,133.16,0,0,1-14.15,2.69C161.1,253.81,156.26,254.68,153.26,251.57Z" transform="translate(-37.08 -19.84)" fill="url(#linear-gradient-5)"/><path d="M170.9,180.62l-2.58-1.13a4.9,4.9,0,0,0-3.28-.58,2.47,2.47,0,0,0-1.69,2.1,3.16,3.16,0,0,0,1.05,2.46,8,8,0,0,0,2.34,1.44,35.32,35.32,0,0,0,5.31,1.9,6.24,6.24,0,0,0,2.38.3,2.41,2.41,0,0,0,1.93-1.27,3.57,3.57,0,0,0,.24-1.26c.14-2.07.32-2.11-1.67-2.52A21.51,21.51,0,0,1,170.9,180.62Z" transform="translate(-37.08 -19.84)" fill="#1aba0c"/><path d="M170.9,180.62l-2.58-1.13a4.9,4.9,0,0,0-3.28-.58,2.47,2.47,0,0,0-1.69,2.1,3.16,3.16,0,0,0,1.05,2.46,8,8,0,0,0,2.34,1.44,35.32,35.32,0,0,0,5.31,1.9,6.24,6.24,0,0,0,2.38.3,2.41,2.41,0,0,0,1.93-1.27,3.57,3.57,0,0,0,.24-1.26c.14-2.07.32-2.11-1.67-2.52A21.51,21.51,0,0,1,170.9,180.62Z" transform="translate(-37.08 -19.84)" fill="url(#linear-gradient-6)"/><path d="M172.12,210.6c2.89-5.49,7.48-10.36,13.4-12.23a12.18,12.18,0,0,1,7.43-.2c3.79,1.27,6.38,5,7.3,8.86s.42,8-.28,11.9c-1.35,7.52-3.55,15.08-8.08,21.23s-11.76,10.71-19.39,10.45c-1.07-5.52-2.19-11.18-5.16-16s-1.6-5.69,0-10.35S169.8,215,172.12,210.6Z" transform="translate(-37.08 -19.84)" fill="#1aba0c"/><path d="M172.12,210.6c2.89-5.49,7.48-10.36,13.4-12.23a12.18,12.18,0,0,1,7.43-.2c3.79,1.27,6.38,5,7.3,8.86s.42,8-.28,11.9c-1.35,7.52-3.55,15.08-8.08,21.23s-11.76,10.71-19.39,10.45c-1.07-5.52-2.19-11.18-5.16-16s-1.6-5.69,0-10.35S169.8,215,172.12,210.6Z" transform="translate(-37.08 -19.84)" fill="url(#linear-gradient-7)"/><path d="M199.56,180a5.29,5.29,0,0,0-3.94-1.61,33.63,33.63,0,0,1-4.38-.17c-1.69-.32-3.24-1.24-5-1.39-.82-.08-1.65,0-2.47-.06-2.25-.24-4.21-1.91-6.47-1.87l.43,1.48-4.35-.43c-.51,1.17.8,2.29,1.18,3.51.56,1.73-1,3.56-2.73,4s-3.61,0-5.39-.33a2,2,0,0,0-.88-.05,1.64,1.64,0,0,0-1,1.61,4.48,4.48,0,0,0,2.28,3.73,13.18,13.18,0,0,0,4.31,1.47,9.08,9.08,0,0,0,.85,4.67l12.13-2-2,3.22c4.08-.89,8.36-1.77,12.39-.67-5.29,7.29-5,17.25-9.06,25.3-2.66,1.73-6.89,1-9.68-.47s-5.83-3.27-8.91-2.54c-.73,4.12,2.07,8.2,5.68,10.31s7.86,2.7,12,3.3a3,3,0,0,1,1.25.39,2.89,2.89,0,0,1,.93,2,17.46,17.46,0,0,0,1.47,5.55,5.09,5.09,0,0,0,4.61,2.92c2.1-.18,3.65-2.18,4.12-4.24a20.74,20.74,0,0,0,0-6.29c-.91-11.55,3.63-22.73,7.23-33.74a2.63,2.63,0,0,0,.14-1.8,3,3,0,0,0-1-1.06C199,191.38,197.83,185.17,199.56,180Z" transform="translate(-37.08 -19.84)" fill="url(#linear-gradient-8)"/><path d="M190.36,225.54v.14a34.9,34.9,0,0,0,.44,5.65A26.48,26.48,0,0,0,194,240.6c.08.15.17.29.25.43a22.6,22.6,0,0,0,3.31,4.22c5.18,5.24,12.66,7.76,20.71,7.76,7.28,0,13.67-2.06,18.33-6.31a21.56,21.56,0,0,0,3.27-3.77,25.44,25.44,0,0,0,3.62-8.32,37.23,37.23,0,0,0,1-8.93c0-.41,0-.81,0-1.22,0-1.08-.1-2.19-.2-3.3a60.88,60.88,0,0,0-1.12-7.09c-2.49-11.44-8.26-23.15-15.64-29.1a16.17,16.17,0,0,0-10.1-4C202.53,181,190.42,206.9,190.36,225.54Z" transform="translate(-37.08 -19.84)" fill="#1aba0c"/><path d="M190.36,225.54v.14a34.9,34.9,0,0,0,.44,5.65A26.48,26.48,0,0,0,194,240.6c.08.15.17.29.25.43a22.6,22.6,0,0,0,3.31,4.22c5.18,5.24,12.66,7.76,20.71,7.76,7.28,0,13.67-2.06,18.33-6.31a21.56,21.56,0,0,0,3.27-3.77,25.44,25.44,0,0,0,3.62-8.32,37.23,37.23,0,0,0,1-8.93c0-.41,0-.81,0-1.22,0-1.08-.1-2.19-.2-3.3a60.88,60.88,0,0,0-1.12-7.09c-2.49-11.44-8.26-23.15-15.64-29.1a16.17,16.17,0,0,0-10.1-4C202.53,181,190.42,206.9,190.36,225.54Z" transform="translate(-37.08 -19.84)" fill="url(#linear-gradient-9)"/><path d="M190.37,225.68A29,29,0,0,0,194.28,241a30.15,30.15,0,0,0,18,5.37c15,0,26.23-8.69,26.23-27.33A63.55,63.55,0,0,0,227.55,185a16.15,16.15,0,0,0-10.1-4C202.49,181,190.37,207,190.37,225.68Z" transform="translate(-37.08 -19.84)" fill="#1aba0c"/><path d="M190.37,225.68A29,29,0,0,0,194.28,241a30.15,30.15,0,0,0,18,5.37c15,0,26.23-8.69,26.23-27.33A63.55,63.55,0,0,0,227.55,185a16.15,16.15,0,0,0-10.1-4C202.49,181,190.37,207,190.37,225.68Z" transform="translate(-37.08 -19.84)" fill="url(#linear-gradient-10)"/><polygon points="203.28 184.66 197.54 186.63 189.63 183.22 182.99 186.63 176.16 183.22 169.87 187.35 163.4 183.22 157.23 185.29 155.68 190.05 162.5 187.26 171.49 191.31 177.16 187.26 183.62 191.66 190.62 186.63 198.98 192.74 204.85 189.33 203.28 184.66" fill="#1aba0c"/><polygon points="203.28 184.66 197.54 186.63 189.63 183.22 182.99 186.63 176.16 183.22 169.87 187.35 163.4 183.22 157.23 185.29 155.68 190.05 162.5 187.26 171.49 191.31 177.16 187.26 183.62 191.66 190.62 186.63 198.98 192.74 204.85 189.33 203.28 184.66" fill="#fff"/><path d="M190.36,225.54v.14a34.9,34.9,0,0,0,.44,5.65,20.31,20.31,0,0,0,3.52-3.09,6,6,0,0,1,2.67-2.12,4,4,0,0,1,3.52,1.22c1,.87,1.74,1.95,2.78,2.72a6.27,6.27,0,0,0,5.12,1.06,17.21,17.21,0,0,0,4.6-2.38,7,7,0,0,1,4.92-1.24c2.48.57,3.81,3.21,5.85,4.71a7.2,7.2,0,0,0,8.62-.29c1.4-1.17,2.54-3,4.36-3.08s3,1.36,4,2.75a8.83,8.83,0,0,0,2.79,3,37.23,37.23,0,0,0,1-8.93c0-.41,0-.81,0-1.22l-.11,0a5.87,5.87,0,0,0-7.11-1.26c-1.28.72-2.24,1.91-3.46,2.74a7.38,7.38,0,0,1-6.42.84c-2.45-.85-4.24-2.92-5.78-5-1-1.44-3.4-1.12-5.11-.61A11.59,11.59,0,0,0,212,224c-1.57,1.44-3.21,3.18-5.34,3.2-2.32,0-4.09-2.1-5-4.22a4.81,4.81,0,0,0-1.55-2.29,4.22,4.22,0,0,0-1.76-.46c-1.72-.18-3.66-.3-5,.82s-1.6,3.3-3,4.47Z" transform="translate(-37.08 -19.84)" fill="#fff" opacity="0.74"/><path d="M194,240.6c.08.15.17.29.25.43a22.6,22.6,0,0,0,3.31,4.22,13.87,13.87,0,0,0,4.31-.37c2.24-.58,4.26-1.86,6.54-2.27,4.95-.91,9.78,2.45,14.81,2.28a49.92,49.92,0,0,0,5.41-.87,8.19,8.19,0,0,1,5.33.67c.95.56,1.7,1.42,2.64,2a21.56,21.56,0,0,0,3.27-3.77,13.75,13.75,0,0,1-5.64-1.85c-1.93-1.18-3.92-2.79-6.16-2.47a11.17,11.17,0,0,0-3.26,1.36,12.52,12.52,0,0,1-5.61,1.24,7.12,7.12,0,0,1-3.22-.71c-.72-.38-1.33-.92-2-1.33a12.37,12.37,0,0,0-4.89-1.25,7.2,7.2,0,0,0-2.45,0c-1.34.3-2.38,1.32-3.57,2C200.38,241.49,197.16,241.28,194,240.6Z" transform="translate(-37.08 -19.84)" fill="#fff"/><circle cx="192.13" cy="197.82" r="3.59" fill="#fff"/><circle cx="176.29" cy="196.69" r="3.59" fill="#fff"/><circle cx="163.07" cy="195.06" r="3.59" fill="#fff"/><path d="M239.9,217.66a3.59,3.59,0,0,0,3.59,3.59,3.75,3.75,0,0,0,.82-.09,60.88,60.88,0,0,0-1.12-7.09A3.6,3.6,0,0,0,239.9,217.66Z" transform="translate(-37.08 -19.84)" fill="#fff"/><path d="M239.9,235.39a.59.59,0,0,1,.45.63l.05.63a1,1,0,0,1,0,.39.84.84,0,0,1-.89.45,6.75,6.75,0,0,1-1.69-.47,16,16,0,0,0-5-.56c-.35,0-.76-.05-.93-.36-.6-1.06,2.3-1.62,2.93-1.65A11.63,11.63,0,0,1,239.9,235.39Z" transform="translate(-37.08 -19.84)" fill="#fff"/><path d="M221.06,233.87a2.92,2.92,0,0,1,1.75,1.14.52.52,0,0,1,.08.41c-.08.25-.41.28-.67.28l-7.6-.25a1.19,1.19,0,0,1-1.24-1.41c.18-.75.85-.83,1.52-.9A15,15,0,0,1,221.06,233.87Z" transform="translate(-37.08 -19.84)" fill="#fff"/><path d="M202.54,232.32a12.62,12.62,0,0,1,3.53.3c.3.09.65.24.72.55a.82.82,0,0,1-.33.75,3.55,3.55,0,0,1-2,.75c-.72.06-1.46,0-2.18.07-1.61.14-3.29.82-4.78.18a.45.45,0,0,1-.21-.15c-.61-.83.87-2.1,1.57-2.31A13.47,13.47,0,0,1,202.54,232.32Z" transform="translate(-37.08 -19.84)" fill="#fff"/><path d="M193.61,162.2a4.4,4.4,0,0,0-2.36.32,1.51,1.51,0,0,0-.68,2,2.14,2.14,0,0,0,.46.44l3,2.36a3,3,0,0,0,1,.59c1,.23,1.84-.61,2.34-1.45a3.9,3.9,0,0,0,.65-2.39C197.76,161.85,195.24,162.28,193.61,162.2Z" transform="translate(-37.08 -19.84)" fill="url(#linear-gradient-11)"/><circle cx="139.75" cy="135.82" r="1.91" fill="url(#linear-gradient-12)"/><circle cx="162.86" cy="134.33" r="1.91" fill="url(#linear-gradient-13)"/><path d="M195,170.67a3.87,3.87,0,0,1-2.26,1.58,11.43,11.43,0,0,1-2.79.32c-.15.31.26.59.59.67a5.4,5.4,0,0,0,4.49-1,4.36,4.36,0,0,0,3.19.6.48.48,0,0,0,.29-.15c.17-.24-.2-.5-.5-.53-.78-.07-1.75.14-2.22-.49a1.92,1.92,0,0,1-.13-1.53c.07-.31.72-2.51.07-2.12C195.22,168.31,195.33,170.07,195,170.67Z" transform="translate(-37.08 -19.84)" fill="#1aba0c"/><path d="M173.15,126.06c.94-4.81,2.51-9.5,3.14-14.37a37.67,37.67,0,0,0-3-20.07,1.45,1.45,0,0,0-.62-.79,1.36,1.36,0,0,0-1.18.16,7.61,7.61,0,0,0-3.9,8,1.64,1.64,0,0,0-1-1.51,12.48,12.48,0,0,0-2.83,8.92,37,37,0,0,0,2,9.35l4.32,14a16.11,16.11,0,0,1,.4-6.87c0,4.9,1.1,10.49,2,15.29C173,134.08,172.34,130.15,173.15,126.06Z" transform="translate(-37.08 -19.84)" fill="#1aba0c"/><path d="M196.39,106.58a47.29,47.29,0,0,0-4.62-17.92c3.62,2.21,5.56,6.36,6.79,10.41a51.78,51.78,0,0,1-3.71,38.62c2.22-2.41.51-11.28.77-14.65C196,117.56,196.7,112.08,196.39,106.58Z" transform="translate(-37.08 -19.84)" fill="#1aba0c"/><path d="M173.15,126.06c.94-4.81,2.51-9.5,3.14-14.37a37.67,37.67,0,0,0-3-20.07,1.45,1.45,0,0,0-.62-.79,1.36,1.36,0,0,0-1.18.16,7.61,7.61,0,0,0-3.9,8,1.64,1.64,0,0,0-1-1.51,12.48,12.48,0,0,0-2.83,8.92,37,37,0,0,0,2,9.35l4.32,14a16.11,16.11,0,0,1,.4-6.87c0,4.9,1.1,10.49,2,15.29C173,134.08,172.34,130.15,173.15,126.06Z" transform="translate(-37.08 -19.84)" fill="url(#linear-gradient-14)"/><path d="M196.39,106.58a47.29,47.29,0,0,0-4.62-17.92c3.62,2.21,5.56,6.36,6.79,10.41a51.78,51.78,0,0,1-3.71,38.62c2.22-2.41.51-11.28.77-14.65C196,117.56,196.7,112.08,196.39,106.58Z" transform="translate(-37.08 -19.84)" fill="url(#linear-gradient-15)"/><path d="M161.74,212.85c3.72,4.22,7.8,8.25,12.78,10.88s11,3.7,16.29,1.81a11,11,0,0,1,2.89-.84,11.46,11.46,0,0,1,3.83.8,4.5,4.5,0,0,0,3.79-.26c1.07-.76,1.22-2.73,0-3.24a3.28,3.28,0,0,0,3.07-3.28,3.79,3.79,0,0,0-3-3.49,3.58,3.58,0,0,0-2.79-4,6.21,6.21,0,0,0-5.07,1.36,5.66,5.66,0,0,1-1.28.84,4.56,4.56,0,0,1-1.88.18,47.59,47.59,0,0,1-10.59-1.31,16,16,0,0,1-8.82-5.7c-1.67-2.35-2.73-5.52-5.45-6.5a7.25,7.25,0,0,0-2.54-.33c-2,0-4.07.4-5.42,1.82C154.57,204.69,159.69,210.53,161.74,212.85Z" transform="translate(-37.08 -19.84)" fill="#fff"/><path d="M173.11,236.46c2.94,4.85,3,11.72-1,15.77l21.42,1.19a6.71,6.71,0,0,1,3.2.72,2.33,2.33,0,0,1,1.1,2.81,2.86,2.86,0,0,1-1.35,1.19c-4.62,2.39-10.26.45-15.41,1.19l-.24,1.51c-13.35,1.32-26.85,2.64-40.13.79a7.82,7.82,0,0,1-4.53-1.68c-2.4-2.31-1.22-6.35-2.14-9.55s-4.14-5.55-5.63-8.68a9.57,9.57,0,0,1,2.54-11.21c3.27-2.64,7.84-2.77,12-2.78C153.63,227.72,166.89,224.79,173.11,236.46Z" transform="translate(-37.08 -19.84)" fill="#1aba0c"/><path d="M173.11,236.46c2.94,4.85,3,11.72-1,15.77l21.42,1.19a6.71,6.71,0,0,1,3.2.72,2.33,2.33,0,0,1,1.1,2.81,2.86,2.86,0,0,1-1.35,1.19c-4.62,2.39-10.26.45-15.41,1.19l-.24,1.51c-13.35,1.32-26.85,2.64-40.13.79a7.82,7.82,0,0,1-4.53-1.68c-2.4-2.31-1.22-6.35-2.14-9.55s-4.14-5.55-5.63-8.68a9.57,9.57,0,0,1,2.54-11.21c3.27-2.64,7.84-2.77,12-2.78C153.63,227.72,166.89,224.79,173.11,236.46Z" transform="translate(-37.08 -19.84)" fill="url(#linear-gradient-16)"/><path d="M178.35,177.49a2.5,2.5,0,0,0-1.43-.1,1.66,1.66,0,0,0-1,1.31,3.41,3.41,0,0,0,.2,1.73.91.91,0,0,1,.06.7,1,1,0,0,1-.4.35,5.22,5.22,0,0,0-2.09,2.88,13.48,13.48,0,0,0-.53,3.58,3,3,0,0,0,.11,1.2,3.2,3.2,0,0,0,1.18,1.3,6.86,6.86,0,0,0,2.61,1.41,6.16,6.16,0,0,0,4-1c2-1.09,4-2.42,6-3.41a3.13,3.13,0,0,1,1.48-.4,3.78,3.78,0,0,1,1.75.78,17.16,17.16,0,0,0,7.82,2.68,3.21,3.21,0,0,0,1.74-.21,1.27,1.27,0,0,0,.71-1.46,3,3,0,0,0-.77-.89,1,1,0,0,1-.33-1.06,1.3,1.3,0,0,1,.46-.41,6.18,6.18,0,0,0,2.74-4.49,1.64,1.64,0,0,0-.09-.91,1.59,1.59,0,0,0-.44-.52,6.23,6.23,0,0,0-4-1.11c-3.49,0-6.87,1.11-10.36,1.15-1.7,0-2.79-.74-4.34-1.39A42.58,42.58,0,0,0,178.35,177.49Z" transform="translate(-37.08 -19.84)" fill="#1aba0c"/><path d="M178.35,177.49a2.5,2.5,0,0,0-1.43-.1,1.66,1.66,0,0,0-1,1.31,3.41,3.41,0,0,0,.2,1.73.91.91,0,0,1,.06.7,1,1,0,0,1-.4.35,5.22,5.22,0,0,0-2.09,2.88,13.48,13.48,0,0,0-.53,3.58,3,3,0,0,0,.11,1.2,3.2,3.2,0,0,0,1.18,1.3,6.86,6.86,0,0,0,2.61,1.41,6.16,6.16,0,0,0,4-1c2-1.09,4-2.42,6-3.41a3.13,3.13,0,0,1,1.48-.4,3.78,3.78,0,0,1,1.75.78,17.16,17.16,0,0,0,7.82,2.68,3.21,3.21,0,0,0,1.74-.21,1.27,1.27,0,0,0,.71-1.46,3,3,0,0,0-.77-.89,1,1,0,0,1-.33-1.06,1.3,1.3,0,0,1,.46-.41,6.18,6.18,0,0,0,2.74-4.49,1.64,1.64,0,0,0-.09-.91,1.59,1.59,0,0,0-.44-.52,6.23,6.23,0,0,0-4-1.11c-3.49,0-6.87,1.11-10.36,1.15-1.7,0-2.79-.74-4.34-1.39A42.58,42.58,0,0,0,178.35,177.49Z" transform="translate(-37.08 -19.84)" fill="url(#linear-gradient-17)"/><path d="M186.73,180.77a.54.54,0,0,0-.33.07.58.58,0,0,0-.18.3,11.8,11.8,0,0,0,.08,7.54,1.17,1.17,0,0,0,1.08,1,6.3,6.3,0,0,0,1.89.06,1.26,1.26,0,0,0,.64-.19,1.48,1.48,0,0,0,.43-.56,11.7,11.7,0,0,0,1.31-5.47c0-1-.18-2.06-1.22-2.4A12.76,12.76,0,0,0,186.73,180.77Z" transform="translate(-37.08 -19.84)" fill="#1aba0c"/><path d="M186.73,180.77a.54.54,0,0,0-.33.07.58.58,0,0,0-.18.3,11.8,11.8,0,0,0,.08,7.54,1.17,1.17,0,0,0,1.08,1,6.3,6.3,0,0,0,1.89.06,1.26,1.26,0,0,0,.64-.19,1.48,1.48,0,0,0,.43-.56,11.7,11.7,0,0,0,1.31-5.47c0-1-.18-2.06-1.22-2.4A12.76,12.76,0,0,0,186.73,180.77Z" transform="translate(-37.08 -19.84)" fill="url(#linear-gradient-18)"/><path d="M255.13,216.5c1.24-5.8,2.49-11.74,1.66-17.61-.8-5.63-3.47-10.79-5.38-16.14a63.27,63.27,0,0,1,.09-42.54c3.51-9.69,9.34-18.35,15.11-26.89,1.65-2.45,4.5-5.21,7.06-3.76,2.73,1.55,1.48,5.64.18,8.5-9.25,20.41-1.94,44,.8,66.21.94,7.6,1.29,15.48-1.08,22.76-2.14,6.58-6.38,12.25-10.79,17.58-3.6,4.34-7.41,9.44-11.93,12.72C248.62,232,253.94,222.07,255.13,216.5Z" transform="translate(-37.08 -19.84)" fill="#1aba0c"/></svg>