<svg id="Layer_1" data-name="Layer 1" xmlns="http://www.w3.org/2000/svg" xmlns:xlink="http://www.w3.org/1999/xlink" viewBox="0 0 339.35 280.58"><defs><linearGradient id="linear-gradient" x1="182.58" y1="173.42" x2="183.55" y2="237.03" gradientTransform="matrix(-1, 0, 0, 1, 258.4, -24.16)" gradientUnits="userSpaceOnUse"><stop offset="0.01"/><stop offset="0.13" stop-opacity="0.69"/><stop offset="1" stop-opacity="0"/></linearGradient><linearGradient id="linear-gradient-2" x1="104.33" y1="240.18" x2="163.79" y2="178.52" gradientTransform="matrix(-1, 0, 0, 1, 278.79, 0)" xlink:href="#linear-gradient"/><linearGradient id="linear-gradient-3" x1="232.68" y1="138.12" x2="130.65" y2="177.02" gradientTransform="matrix(-1, 0, 0, 1, 278.79, 0)" gradientUnits="userSpaceOnUse"><stop offset="0.01" stop-color="#fff"/><stop offset="0.13" stop-color="#fff" stop-opacity="0.69"/><stop offset="1" stop-color="#fff" stop-opacity="0"/></linearGradient><linearGradient id="linear-gradient-4" x1="243.61" y1="207.63" x2="103.73" y2="163.85" gradientTransform="matrix(1, 0, 0, 1, 0, 0)" xlink:href="#linear-gradient"/><linearGradient id="linear-gradient-5" x1="250.21" y1="144.79" x2="251.24" y2="212.02" gradientTransform="matrix(1, 0, 0, 1, 0, 0)" xlink:href="#linear-gradient"/><linearGradient id="linear-gradient-6" x1="187.9" y1="239.5" x2="250.74" y2="174.34" gradientTransform="matrix(1, 0, 0, 1, 0, 0)" xlink:href="#linear-gradient"/><linearGradient id="linear-gradient-7" x1="323.55" y1="131.63" x2="215.72" y2="172.75" gradientTransform="matrix(1, 0, 0, 1, 0, 0)" xlink:href="#linear-gradient-3"/><linearGradient id="linear-gradient-8" x1="150.18" y1="227.06" x2="274.51" y2="143.32" gradientTransform="matrix(1, 0, 0, 1, 0, 0)" xlink:href="#linear-gradient"/><linearGradient id="linear-gradient-9" x1="182.56" y1="138.16" x2="183.83" y2="220.63" gradientTransform="matrix(1, 0, 0, 1, 0, 0)" xlink:href="#linear-gradient"/><linearGradient id="linear-gradient-10" x1="101.52" y1="248.87" x2="178.6" y2="168.94" gradientTransform="matrix(1, 0, 0, 1, 0, 0)" xlink:href="#linear-gradient"/><linearGradient id="linear-gradient-11" x1="267.9" y1="116.56" x2="135.64" y2="166.99" gradientTransform="matrix(1, 0, 0, 1, 0, 0)" xlink:href="#linear-gradient-3"/></defs><title>1</title><path d="M124.38,31.39A112.19,112.19,0,0,0,63.91,81c-8.11,14-13,29.61-17.91,45.05q-8.2,26.05-16.42,52.1c-6.54,20.73-13.09,43.12-6.35,63.78,9.43,28.89,40.73,43.61,69,54.66,8.85,3.46,17.85,6.9,27.3,7.86,18.41,1.87,36.26-5.79,53.68-12,21.06-7.53,43.36-13.2,65.61-11,19,1.88,37.3,9.41,56.34,8.83a66.66,66.66,0,0,0,62.72-82.41c-4.79-19.62-18.19-36.13-24.21-55.4C328.64,136.26,329,119,328.91,102s-.88-34.41-8-49.81C303.36,14,270.52,27,237.34,26.6,199.8,26.18,160.84,19,124.38,31.39Z" transform="translate(-20.39 -24.16)" fill="#3698fb" opacity="0.18" style="isolation:isolate"/><ellipse cx="75.02" cy="201.33" rx="55.3" ry="5.87" fill="url(#linear-gradient)"/><path d="M57,179.36v.25a64.28,64.28,0,0,0,.79,10.27,48.22,48.22,0,0,0,5.86,16.84c.15.26.3.52.46.78a41.62,41.62,0,0,0,6,7.66c9.41,9.5,23,14.08,37.61,14.08,13.22,0,24.84-3.73,33.29-11.46a38.31,38.31,0,0,0,5.93-6.84,46,46,0,0,0,6.58-15.1,67.64,67.64,0,0,0,1.83-16.23c0-.73,0-1.46,0-2.2-.05-2-.18-4-.37-6a107,107,0,0,0-2-12.86c-4.51-20.78-15-42-28.4-52.85-5.67-4.57-11.87-7.27-18.35-7.27C79.06,98.42,57.08,145.52,57,179.36Z" transform="translate(-20.39 -24.16)" fill="#3698fb"/><path d="M57,179.36v.25a64.28,64.28,0,0,0,.79,10.27,48.22,48.22,0,0,0,5.86,16.84c.15.26.3.52.46.78a41.62,41.62,0,0,0,6,7.66c9.41,9.5,23,14.08,37.61,14.08,13.22,0,24.84-3.73,33.29-11.46a38.31,38.31,0,0,0,5.93-6.84,46,46,0,0,0,6.58-15.1,67.64,67.64,0,0,0,1.83-16.23c0-.73,0-1.46,0-2.2-.05-2-.18-4-.37-6a107,107,0,0,0-2-12.86c-4.51-20.78-15-42-28.4-52.85-5.67-4.57-11.87-7.27-18.35-7.27C79.06,98.42,57.08,145.52,57,179.36Z" transform="translate(-20.39 -24.16)" fill="url(#linear-gradient-2)"/><path d="M57,179.61c0,11.27,2.61,20.54,7.11,27.89,8.94,6.57,20.41,9.75,32.61,9.75,27.16,0,47.63-15.78,47.63-49.64,0-20.13-7.79-45-19.83-61.92-5.67-4.57-11.86-7.27-18.34-7.27C79,98.42,57,145.76,57,179.61Z" transform="translate(-20.39 -24.16)" fill="#3698fb"/><path d="M57,179.61c0,11.27,2.61,20.54,7.11,27.89,8.94,6.57,20.41,9.75,32.61,9.75,27.16,0,47.63-15.78,47.63-49.64,0-20.13-7.79-45-19.83-61.92-5.67-4.57-11.86-7.27-18.34-7.27C79,98.42,57,145.76,57,179.61Z" transform="translate(-20.39 -24.16)" fill="url(#linear-gradient-3)"/><polygon points="127.36 117 116.94 120.58 102.59 114.39 90.52 120.58 78.12 114.39 66.7 121.89 54.96 114.39 43.74 118.14 40.93 126.78 53.33 121.73 69.64 129.07 79.94 121.73 91.66 129.72 104.38 120.58 119.55 131.68 130.22 125.47 127.36 117" fill="#3698fb"/><polygon points="127.36 117 116.94 120.58 102.59 114.39 90.52 120.58 78.12 114.39 66.7 121.89 54.96 114.39 43.74 118.14 40.93 126.78 53.33 121.73 69.64 129.07 79.94 121.73 91.66 129.72 104.38 120.58 119.55 131.68 130.22 125.47 127.36 117" fill="#fff"/><path d="M57,179.36v.25a64.28,64.28,0,0,0,.79,10.27,36.38,36.38,0,0,0,6.4-5.62c1.39-1.55,2.8-3.32,4.83-3.84,2.28-.58,4.65.64,6.41,2.22s3.14,3.53,5,4.93a11.39,11.39,0,0,0,9.3,1.92c3.06-.73,5.66-2.69,8.36-4.31s5.87-3,8.94-2.25c4.49,1,6.91,5.83,10.62,8.55a13.1,13.1,0,0,0,15.66-.53c2.53-2.12,4.6-5.41,7.9-5.6,3.07-.18,5.48,2.48,7.22,5,1.42,2.07,2.92,4.36,5.06,5.49a67.64,67.64,0,0,0,1.83-16.23c0-.73,0-1.46,0-2.2a.61.61,0,0,0-.2.09,10.67,10.67,0,0,0-12.91-2.3c-2.33,1.32-4.07,3.48-6.29,5a13.3,13.3,0,0,1-11.66,1.52c-4.43-1.54-7.69-5.3-10.48-9.08-1.92-2.6-6.19-2-9.3-1.11a21.41,21.41,0,0,0-8.18,5.08c-2.84,2.61-5.82,5.78-9.69,5.8-4.21,0-7.43-3.81-9.16-7.65-.7-1.55-1.35-3.28-2.8-4.17a7.64,7.64,0,0,0-3.21-.83c-3.13-.33-6.64-.55-9,1.49s-2.9,6-5.39,8.12Z" transform="translate(-20.39 -24.16)" fill="#fff" opacity="0.74"/><path d="M63.63,206.72c.15.26.3.52.46.78a41.62,41.62,0,0,0,6,7.66,25.8,25.8,0,0,0,7.84-.67c4.06-1.06,7.74-3.39,11.86-4.14,9-1.63,17.77,4.45,26.9,4.15,3.32-.12,6.54-1.08,9.82-1.57s6.82-.47,9.68,1.21c1.74,1,3.1,2.59,4.8,3.64a38.31,38.31,0,0,0,5.93-6.84,24.81,24.81,0,0,1-10.23-3.36c-3.51-2.14-7.12-5.06-11.19-4.49-2.13.3-4,1.54-5.92,2.47a22.48,22.48,0,0,1-10.19,2.26,13,13,0,0,1-5.85-1.29c-1.3-.69-2.42-1.67-3.68-2.41-2.66-1.55-5.82-1.93-8.87-2.28a13.3,13.3,0,0,0-4.45,0c-2.43.55-4.32,2.4-6.48,3.65C75.16,208.33,69.32,208,63.63,206.72Z" transform="translate(-20.39 -24.16)" fill="#fff"/><circle cx="107.12" cy="140.89" r="6.52" fill="#fff"/><circle cx="78.36" cy="138.85" r="6.52" fill="#fff"/><circle cx="54.35" cy="135.88" r="6.52" fill="#fff"/><path d="M146.92,165.05a6.53,6.53,0,0,0,8,6.35,107,107,0,0,0-2-12.86A6.53,6.53,0,0,0,146.92,165.05Z" transform="translate(-20.39 -24.16)" fill="#fff"/><path d="M146.93,197.25a1.53,1.53,0,0,1,.64.44,1.47,1.47,0,0,1,.18.71l.09,1.14a1.7,1.7,0,0,1,0,.71c-.2.62-1,.84-1.62.81a11.1,11.1,0,0,1-3.06-.86c-2.89-1-6-1-9.06-1-.63,0-1.37-.09-1.68-.64-1.08-1.94,4.18-3,5.33-3A21,21,0,0,1,146.93,197.25Z" transform="translate(-20.39 -24.16)" fill="#fff"/><path d="M112.71,194.49a5.28,5.28,0,0,1,3.19,2.08.92.92,0,0,1,.14.73c-.15.46-.75.52-1.22.51l-13.8-.46a2.14,2.14,0,0,1-2.25-2.56c.33-1.36,1.55-1.49,2.76-1.63A27.54,27.54,0,0,1,112.71,194.49Z" transform="translate(-20.39 -24.16)" fill="#fff"/><path d="M79.09,191.68a22.86,22.86,0,0,1,6.4.54c.56.16,1.18.43,1.32,1a1.49,1.49,0,0,1-.61,1.36,6.3,6.3,0,0,1-3.66,1.36c-1.32.12-2.65,0-4,.13-2.92.25-6,1.49-8.67.33a.91.91,0,0,1-.39-.27c-1.11-1.51,1.58-3.81,2.85-4.21C74.38,191.3,77,191.7,79.09,191.68Z" transform="translate(-20.39 -24.16)" fill="#fff"/><path d="M113.89,200.2c.26,7.6,1.07,16.61-4.86,21.38a114.26,114.26,0,0,0,20.34-.67c2.76-.33,5.65-.83,7.82-2.59,2.73-2.21,3.69-5.91,4.37-9.37a156.62,156.62,0,0,0,2-47c-1.53-14.1-4.16-33.8-12.4-45.6C124.6,143,112.94,172.47,113.89,200.2Z" transform="translate(-20.39 -24.16)" fill="url(#linear-gradient-4)"/><ellipse cx="251.05" cy="199.81" rx="58.44" ry="6.21" fill="url(#linear-gradient-5)"/><path d="M312.07,175.22v.27a66.71,66.71,0,0,1-.84,10.85,50.81,50.81,0,0,1-6.19,17.8c-.16.28-.32.55-.49.82a44.07,44.07,0,0,1-6.34,8.1c-9.95,10-24.3,14.88-39.75,14.88-14,0-26.25-3.94-35.18-12.11A40.83,40.83,0,0,1,217,208.6a48.46,48.46,0,0,1-6.95-16,71.32,71.32,0,0,1-1.94-17.15c0-.77,0-1.55,0-2.33q.09-3.12.4-6.35a113.16,113.16,0,0,1,2.14-13.59c4.77-22,15.85-44.43,30-55.85,6-4.84,12.54-7.69,19.39-7.69C288.73,89.68,312,139.46,312.07,175.22Z" transform="translate(-20.39 -24.16)" fill="#3698fb"/><path d="M312.07,175.22v.27a66.71,66.71,0,0,1-.84,10.85c-.17,1.07-.37,2.12-.59,3.14a52.19,52.19,0,0,1-1.92,6.73,46.9,46.9,0,0,1-3.69,7.93c-.15.28-.31.56-.48.82s-.44.71-.66,1a43.84,43.84,0,0,1-3.59,4.78c-.67.78-1.37,1.54-2.09,2.27a46.05,46.05,0,0,1-10,7.63,53.92,53.92,0,0,1-14.2,5.5,67.32,67.32,0,0,1-15.5,1.75c-1,0-2,0-2.95-.06a64.24,64.24,0,0,1-7.73-.77c-9.54-1.54-17.93-5.27-24.5-11.28A40.83,40.83,0,0,1,217,208.6a48.5,48.5,0,0,1-6.95-15.95,71.47,71.47,0,0,1-1.94-17.16c0-.77,0-1.55,0-2.33.06-2.08.19-4.2.4-6.34a112.85,112.85,0,0,1,2.14-13.59,129.62,129.62,0,0,1,9.3-27.49c5.48-11.64,12.59-21.82,20.72-28.37l.8-.62a31.82,31.82,0,0,1,15.74-6.9,24.5,24.5,0,0,1,2.85-.17,26.28,26.28,0,0,1,9.28,1.74,33.1,33.1,0,0,1,5.75,2.86A43.6,43.6,0,0,1,281.45,99a60.79,60.79,0,0,1,5.35,5.5,78.16,78.16,0,0,1,6.19,8.25c1.13,1.71,2.22,3.5,3.26,5.34,1.58,2.76,3.06,5.65,4.43,8.64a128.17,128.17,0,0,1,10.74,37.89h0c.12,1,.22,2,.3,3Q312,171.53,312.07,175.22Z" transform="translate(-20.39 -24.16)" fill="url(#linear-gradient-6)"/><path d="M312.07,175.49c0,11.91-2.77,21.71-7.52,29.47-9.45,6.95-21.57,10.31-34.46,10.31-28.71,0-50.34-16.68-50.34-52.46,0-21.28,8.24-47.61,20.95-65.44,6-4.84,12.54-7.69,19.39-7.69C288.8,89.68,312.07,139.71,312.07,175.49Z" transform="translate(-20.39 -24.16)" fill="#3698fb"/><path d="M312.07,175.49c0,11.91-2.77,21.71-7.52,29.47-9.45,6.95-21.57,10.31-34.46,10.31-28.71,0-50.34-16.68-50.34-52.46,0-21.28,8.24-47.61,20.95-65.44,6-4.84,12.54-7.69,19.39-7.69C288.8,89.68,312.07,139.71,312.07,175.49Z" transform="translate(-20.39 -24.16)" fill="url(#linear-gradient-7)"/><circle cx="217.14" cy="135.94" r="6.9" fill="#fff"/><path d="M217,160.1a6.9,6.9,0,0,1-6.9,6.89,6.66,6.66,0,0,1-1.56-.18,113.16,113.16,0,0,1,2.14-13.59A6.91,6.91,0,0,1,217,160.1Z" transform="translate(-20.39 -24.16)" fill="#fff"/><path d="M217,194.13a1.14,1.14,0,0,0-.86,1.22l-.1,1.2a1.89,1.89,0,0,0,0,.75c.21.66,1,.89,1.71.86a12.32,12.32,0,0,0,3.24-.91c3.06-1,6.35-1,9.57-1.07.67,0,1.46-.1,1.78-.68,1.14-2.05-4.42-3.11-5.64-3.16A22.15,22.15,0,0,0,217,194.13Z" transform="translate(-20.39 -24.16)" fill="#fff"/><g opacity="0.52"><path d="M303.89,206a43.84,43.84,0,0,1-3.59,4.78,107.84,107.84,0,0,0-8.9-25.62C285.53,173,278,161.76,270.65,150.45c-4.24-6.51-8.53-13.3-9.74-21-1.1-7,.5-14.23,3.62-20.57a54.13,54.13,0,0,1,9.37-13.37c.42-.44.82-.87,1.23-1.26A43.6,43.6,0,0,1,281.45,99c-5.05,6.35-9.57,13.29-11.1,21.21-1.62,8.42.34,17.18,3.69,25.07s8.07,15.11,12.28,22.58A293.6,293.6,0,0,1,302.8,203.2C303.17,204.13,303.54,205.07,303.89,206Z" transform="translate(-20.39 -24.16)" fill="#fff"/><path d="M310.64,189.48a52.19,52.19,0,0,1-1.92,6.73l-24.63-43.43c-3.48-6.14-7.07-12.66-6.91-19.71.11-4.8,1.95-9.37,3.77-13.81,1.25-3,3.13-11.37,5.85-14.74a78.16,78.16,0,0,1,6.19,8.25c-.88,1.93-2,3.77-3,5.66a33.07,33.07,0,0,0-3.36,18.24c1.11,10.58,7.18,19.87,12.42,29.12a217.12,217.12,0,0,1,10.68,21.5Q310.21,188.37,310.64,189.48Z" transform="translate(-20.39 -24.16)" fill="#fff"/><path d="M311.72,167.67a196.66,196.66,0,0,1-15.1-21.3,20.59,20.59,0,0,1-2.85-6.17,18.88,18.88,0,0,1-.1-6c.3-2.84.88-11,2.58-16,1.58,2.76,3.06,5.65,4.43,8.64a14.43,14.43,0,0,0-1.07,2.45,15.77,15.77,0,0,0-.28,6.42,50.65,50.65,0,0,0,4.36,15.54,101.28,101.28,0,0,0,5.87,10.46l1.86,3h0C311.54,165.66,311.64,166.67,311.72,167.67Z" transform="translate(-20.39 -24.16)" fill="#fff"/><path d="M288.16,220.69a53.92,53.92,0,0,1-14.2,5.5A127.43,127.43,0,0,0,261,186.14c-5-9.65-11.24-18.63-16.17-28.32s-8.58-20.4-7.87-31.25c.69-10.3,5.31-20.07,11.72-28.18a51.42,51.42,0,0,1,8.53-8.54,24.5,24.5,0,0,1,2.85-.17,26.28,26.28,0,0,1,9.28,1.74c-1.58,4.25-8.36,9.66-10,11.55a37.56,37.56,0,0,0-8.67,19.9c-1.32,11.42,2.69,22.83,8.18,32.93s12.49,19.31,17.91,29.44a108.88,108.88,0,0,1,10.43,28.56A35,35,0,0,1,288.16,220.69Z" transform="translate(-20.39 -24.16)" fill="#fff"/><path d="M255.51,227.88a64.24,64.24,0,0,1-7.73-.77c-1.05-16.88-12-31.33-19-46.76A106.28,106.28,0,0,1,220,125.74c5.48-11.64,12.59-21.82,20.72-28.37l.8-.62c-1.07,5.77-4.23,14.43-4.78,16.55-3.11,11.81-6.24,23.9-5.26,36.08,1.5,18.52,12.21,34.78,20.27,51.52,2.34,4.86,4.5,9.91,5.19,15.26A22.57,22.57,0,0,1,255.51,227.88Z" transform="translate(-20.39 -24.16)" fill="#fff"/></g><path d="M264.25,197.12c-1.58,8.36-3.69,18.23,2.16,24.4-6.9,2.36-14.08,4.36-21.37,4.18s-14.82-2.8-19.54-8.37c-6-7.11-6.42-17.27-6.51-26.6l-.57-57.61c-.07-7.18-.11-14.55,2.45-21.25,3.53-9.24,12.57-17,20.43-8.5,7.37,7.92,12.66,19.1,16.58,29.06A117.58,117.58,0,0,1,264.25,197.12Z" transform="translate(-20.39 -24.16)" fill="url(#linear-gradient-8)"/><ellipse cx="183.6" cy="205.66" rx="71.68" ry="7.61" fill="url(#linear-gradient-9)"/><path d="M253.82,170v.33a82.62,82.62,0,0,1-1,13.31,62.25,62.25,0,0,1-7.6,21.83c-.19.34-.39.68-.59,1a54.1,54.1,0,0,1-7.78,9.93c-12.2,12.32-29.81,18.25-48.76,18.25-17.13,0-32.19-4.83-43.15-14.85a50.19,50.19,0,0,1-7.69-8.87,59.56,59.56,0,0,1-8.52-19.57,87.45,87.45,0,0,1-2.38-21c0-.95,0-1.9,0-2.86.07-2.55.23-5.15.48-7.78A139.39,139.39,0,0,1,129.47,143c5.85-26.94,19.44-54.5,36.82-68.51,7.35-5.93,15.38-9.43,23.78-9.43C225.19,65.1,253.68,126.16,253.82,170Z" transform="translate(-20.39 -24.16)" fill="#3698fb"/><path d="M253.82,170v.33a82.62,82.62,0,0,1-1,13.31,62.25,62.25,0,0,1-7.6,21.83c-.19.34-.39.68-.59,1a54.1,54.1,0,0,1-7.78,9.93c-12.2,12.32-29.81,18.25-48.76,18.25-17.13,0-32.19-4.83-43.15-14.85a50.19,50.19,0,0,1-7.69-8.87,59.56,59.56,0,0,1-8.52-19.57,87.45,87.45,0,0,1-2.38-21c0-.95,0-1.9,0-2.86.07-2.55.23-5.15.48-7.78A139.39,139.39,0,0,1,129.47,143c5.85-26.94,19.44-54.5,36.82-68.51,7.35-5.93,15.38-9.43,23.78-9.43C225.19,65.1,253.68,126.16,253.82,170Z" transform="translate(-20.39 -24.16)" fill="url(#linear-gradient-10)"/><path d="M253.82,170.35c0,14.61-3.39,26.63-9.22,36.15C233,215,218.14,219.14,202.33,219.14c-35.21,0-61.74-20.45-61.74-64.34,0-26.1,10.1-58.39,25.7-80.27,7.35-5.93,15.38-9.43,23.78-9.43C225.28,65.1,253.82,126.47,253.82,170.35Z" transform="translate(-20.39 -24.16)" fill="#3698fb"/><path d="M253.82,170.35c0,14.61-3.39,26.63-9.22,36.15C233,215,218.14,219.14,202.33,219.14c-35.21,0-61.74-20.45-61.74-64.34,0-26.1,10.1-58.39,25.7-80.27,7.35-5.93,15.38-9.43,23.78-9.43C225.28,65.1,253.82,126.47,253.82,170.35Z" transform="translate(-20.39 -24.16)" fill="url(#linear-gradient-11)"/><polygon points="115.75 96.34 129.26 100.99 147.87 92.95 163.51 100.99 179.58 92.95 194.38 102.68 209.61 92.95 224.15 97.81 227.8 109.02 211.72 102.47 190.58 111.98 177.22 102.47 162.03 112.83 145.54 100.99 125.87 115.37 112.04 107.33 115.75 96.34" fill="#3698fb"/><polygon points="115.75 96.34 129.26 100.99 147.87 92.95 163.51 100.99 179.58 92.95 194.38 102.68 209.61 92.95 224.15 97.81 227.8 109.02 211.72 102.47 190.58 111.98 177.22 102.47 162.03 112.83 145.54 100.99 125.87 115.37 112.04 107.33 115.75 96.34" fill="#fff"/><path d="M253.82,170v.33a82.62,82.62,0,0,1-1,13.31,47.45,47.45,0,0,1-8.29-7.28c-1.81-2-3.64-4.31-6.27-5-2.95-.75-6,.83-8.3,2.87s-4.08,4.58-6.53,6.4a14.79,14.79,0,0,1-12.05,2.49c-4-.95-7.34-3.49-10.84-5.59s-7.61-3.83-11.59-2.92c-5.82,1.33-8.95,7.56-13.77,11.08a17,17,0,0,1-20.29-.68c-3.28-2.75-6-7-10.25-7.26-4-.23-7.1,3.21-9.35,6.48-1.84,2.68-3.79,5.65-6.56,7.12a87.45,87.45,0,0,1-2.38-21c0-.95,0-1.9,0-2.86a1,1,0,0,1,.26.12,13.83,13.83,0,0,1,16.73-3c3,1.71,5.28,4.51,8.16,6.46a17.28,17.28,0,0,0,15.11,2c5.75-2,10-6.88,13.59-11.77,2.49-3.38,8-2.62,12-1.44s7.51,3.74,10.61,6.58c3.68,3.38,7.55,7.49,12.56,7.52,5.46,0,9.63-4.94,11.87-9.92.91-2,1.76-4.25,3.64-5.4a10,10,0,0,1,4.15-1.08c4.06-.42,8.62-.71,11.73,1.93s3.75,7.78,7,10.53Z" transform="translate(-20.39 -24.16)" fill="#fff" opacity="0.74"/><path d="M245.19,205.49c-.19.34-.39.68-.59,1a54.1,54.1,0,0,1-7.78,9.93,33.32,33.32,0,0,1-10.16-.87c-5.26-1.37-10-4.39-15.38-5.36-11.66-2.12-23,5.77-34.87,5.37-4.3-.15-8.47-1.4-12.73-2s-8.84-.61-12.55,1.57c-2.25,1.32-4,3.35-6.22,4.72a50.19,50.19,0,0,1-7.69-8.87,32.12,32.12,0,0,0,13.26-4.35c4.55-2.78,9.23-6.56,14.51-5.82,2.76.38,5.17,2,7.68,3.2a29.13,29.13,0,0,0,13.2,2.92,16.74,16.74,0,0,0,7.59-1.67c1.69-.89,3.13-2.16,4.77-3.12,3.45-2,7.54-2.5,11.5-3a17.2,17.2,0,0,1,5.77,0c3.15.72,5.6,3.11,8.4,4.73C230.25,207.58,237.82,207.09,245.19,205.49Z" transform="translate(-20.39 -24.16)" fill="#fff"/><circle cx="142" cy="127.31" r="8.46" fill="#fff"/><circle cx="179.27" cy="124.66" r="8.46" fill="#fff"/><circle cx="210.4" cy="120.81" r="8.46" fill="#fff"/><path d="M137.22,151.47a8.46,8.46,0,0,1-8.46,8.46,8.69,8.69,0,0,1-1.92-.22A139.39,139.39,0,0,1,129.47,143,8.46,8.46,0,0,1,137.22,151.47Z" transform="translate(-20.39 -24.16)" fill="#fff"/><path d="M137.21,193.22a1.75,1.75,0,0,0-.82.56,2,2,0,0,0-.24.92l-.12,1.48a2.36,2.36,0,0,0,.05.92c.26.81,1.26,1.09,2.1,1.05a15.24,15.24,0,0,0,4-1.11c3.74-1.26,7.78-1.25,11.73-1.31.82,0,1.79-.12,2.19-.83,1.4-2.52-5.42-3.82-6.92-3.89A27.27,27.27,0,0,0,137.21,193.22Z" transform="translate(-20.39 -24.16)" fill="#fff"/><path d="M181.57,189.63c-1.61.51-3.3,1.23-4.13,2.7a1.21,1.21,0,0,0-.19.95c.19.59,1,.67,1.59.65l17.88-.59c1.74-.05,3.4-1.37,2.93-3.31-.43-1.76-2-1.94-3.58-2.12A35.68,35.68,0,0,0,181.57,189.63Z" transform="translate(-20.39 -24.16)" fill="#fff"/><path d="M225.15,186a30,30,0,0,0-8.3.7c-.72.2-1.52.56-1.7,1.29a1.92,1.92,0,0,0,.79,1.77,8.11,8.11,0,0,0,4.74,1.76c1.71.15,3.43,0,5.14.18,3.79.32,7.75,1.92,11.24.42a1.09,1.09,0,0,0,.51-.35c1.44-2-2-4.94-3.7-5.46C231.26,185.5,227.85,186,225.15,186Z" transform="translate(-20.39 -24.16)" fill="#fff"/></svg>